<svg version="1.1" viewBox="0.0 0.0 529.1338582677165 377.9527559055118" fill="none" stroke="none" stroke-linecap="square" stroke-miterlimit="10" xmlns:xlink="http://www.w3.org/1999/xlink" xmlns="http://www.w3.org/2000/svg"><clipPath id="p.0"><path d="m0 0l529.13385 0l0 377.95276l-529.13385 0l0 -377.95276z" clip-rule="nonzero"/></clipPath><g clip-path="url(#p.0)"><path fill="#000000" fill-opacity="0.0" d="m0 0l529.13385 0l0 377.95276l-529.13385 0z" fill-rule="evenodd"/><path fill="#eee8d5" d="m104.73753 315.8281l0 0c0 -3.710907 3.0082703 -6.7191772 6.719162 -6.7191772l381.08136 0c1.7820435 0 3.4910889 0.70791626 4.7511597 1.9680176c1.2601013 1.2600708 1.9680176 2.9691162 1.9680176 4.7511597l0 26.876617c0 3.710907 -3.0082703 6.7191772 -6.7191772 6.7191772l-381.08136 0l0 0c-3.7108917 0 -6.719162 -3.0082703 -6.719162 -6.7191772z" fill-rule="evenodd"/><path stroke="#2aa198" stroke-width="4.0" stroke-linejoin="round" stroke-linecap="butt" d="m104.73753 315.8281l0 0c0 -3.710907 3.0082703 -6.7191772 6.719162 -6.7191772l381.08136 0c1.7820435 0 3.4910889 0.70791626 4.7511597 1.9680176c1.2601013 1.2600708 1.9680176 2.9691162 1.9680176 4.7511597l0 26.876617c0 3.710907 -3.0082703 6.7191772 -6.7191772 6.7191772l-381.08136 0l0 0c-3.7108917 0 -6.719162 -3.0082703 -6.719162 -6.7191772z" fill-rule="evenodd"/><path fill="#2aa198" d="m252.68277 335.1264l0 -10.5l3.0 0q0.875 0 1.59375 0.171875q0.734375 0.15625 1.25 0.515625q0.515625 0.359375 0.796875 0.953125q0.296875 0.59375 0.296875 1.453125q0 0.828125 -0.28125 1.4375q-0.28125 0.609375 -0.796875 1.015625q-0.515625 0.390625 -1.234375 0.59375q-0.703125 0.203125 -1.5625 0.203125l-1.734375 0l0 4.15625l-1.328125 0zm1.328125 -5.25l1.578125 0q1.375 0 2.03125 -0.515625q0.671875 -0.515625 0.671875 -1.640625q0 -1.140625 -0.703125 -1.578125q-0.703125 -0.4375 -2.078125 -0.4375l-1.5 0l0 4.171875zm7.6029053 5.25l0 -11.390625l1.3125 0l0 3.109375l-0.046875 1.59375q0.5625 -0.53125 1.171875 -0.90625q0.609375 -0.375 1.421875 -0.375q1.234375 0 1.796875 0.765625q0.5625 0.765625 0.5625 2.28125l0 4.921875l-1.3125 0l0 -4.75q0 -1.109375 -0.359375 -1.59375q-0.34375 -0.484375 -1.109375 -0.484375q-0.609375 0 -1.078125 0.3125q-0.453125 0.296875 -1.046875 0.890625l0 5.625l-1.3125 0zm8.82901 3.34375q-0.265625 0 -0.5 -0.046875q-0.21875 -0.03125 -0.40625 -0.109375l0.25 -1.046875q0.125 0.03125 0.28125 0.0625q0.171875 0.046875 0.3125 0.046875q0.671875 0 1.09375 -0.46875q0.421875 -0.46875 0.671875 -1.1875l0.171875 -0.578125l-3.125 -7.796875l1.359375 0l1.59375 4.3125q0.171875 0.515625 0.375 1.078125q0.203125 0.5625 0.375 1.109375l0.0625 0q0.171875 -0.53125 0.328125 -1.09375q0.171875 -0.578125 0.328125 -1.09375l1.390625 -4.3125l1.28125 0l-2.921875 8.421875q-0.21875 0.578125 -0.484375 1.0625q-0.25 0.5 -0.609375 0.859375q-0.34375 0.359375 -0.796875 0.5625q-0.4375 0.21875 -1.03125 0.21875zm9.378265 -3.15625q-0.828125 0 -1.578125 -0.296875q-0.75 -0.3125 -1.3125 -0.765625l0.65625 -0.890625q0.5 0.421875 1.03125 0.6875q0.546875 0.25 1.25 0.25q0.765625 0 1.140625 -0.34375q0.390625 -0.359375 0.390625 -0.875q0 -0.3125 -0.15625 -0.53125q-0.15625 -0.21875 -0.40625 -0.390625q-0.25 -0.171875 -0.578125 -0.296875q-0.3125 -0.125 -0.625 -0.25q-0.421875 -0.140625 -0.84375 -0.328125q-0.40625 -0.1875 -0.734375 -0.453125q-0.328125 -0.265625 -0.546875 -0.609375q-0.203125 -0.359375 -0.203125 -0.859375q0 -0.453125 0.1875 -0.859375q0.1875 -0.421875 0.53125 -0.703125q0.34375 -0.296875 0.828125 -0.46875q0.5 -0.171875 1.125 -0.171875q0.734375 0 1.34375 0.265625q0.625 0.25 1.078125 0.609375l-0.625 0.84375q-0.40625 -0.3125 -0.84375 -0.5q-0.421875 -0.1875 -0.9375 -0.1875q-0.734375 0 -1.078125 0.34375q-0.34375 0.328125 -0.34375 0.765625q0 0.28125 0.140625 0.484375q0.15625 0.1875 0.390625 0.34375q0.234375 0.15625 0.546875 0.28125q0.3125 0.109375 0.65625 0.234375q0.40625 0.171875 0.828125 0.34375q0.4375 0.171875 0.765625 0.4375q0.34375 0.265625 0.546875 0.65625q0.21875 0.375 0.21875 0.921875q0 0.484375 -0.1875 0.90625q-0.171875 0.40625 -0.53125 0.734375q-0.359375 0.3125 -0.90625 0.484375q-0.53125 0.1875 -1.21875 0.1875zm4.67276 -0.1875l0 -7.78125l1.3125 0l0 7.78125l-1.3125 0zm0.671875 -9.375q-0.390625 0 -0.65625 -0.234375q-0.25 -0.25 -0.25 -0.609375q0 -0.390625 0.25 -0.625q0.265625 -0.234375 0.65625 -0.234375q0.390625 0 0.640625 0.234375q0.265625 0.234375 0.265625 0.625q0 0.359375 -0.265625 0.609375q-0.25 0.234375 -0.640625 0.234375zm6.3422546 9.5625q-0.78125 0 -1.453125 -0.265625q-0.671875 -0.28125 -1.15625 -0.796875q-0.484375 -0.515625 -0.765625 -1.265625q-0.28125 -0.765625 -0.28125 -1.734375q0 -0.96875 0.296875 -1.734375q0.3125 -0.765625 0.828125 -1.28125q0.515625 -0.53125 1.1875 -0.796875q0.6875 -0.28125 1.4375 -0.28125q0.765625 0 1.3125 0.28125q0.546875 0.265625 0.953125 0.625l-0.671875 0.875q-0.328125 -0.3125 -0.71875 -0.5q-0.375 -0.1875 -0.828125 -0.1875q-0.53125 0 -0.984375 0.21875q-0.4375 0.203125 -0.765625 0.609375q-0.3125 0.40625 -0.5 0.953125q-0.1875 0.546875 -0.1875 1.21875q0 0.671875 0.171875 1.21875q0.1875 0.546875 0.5 0.9375q0.3125 0.390625 0.75 0.609375q0.453125 0.21875 0.984375 0.21875q0.546875 0 1.0 -0.234375q0.453125 -0.234375 0.8125 -0.5625l0.578125 0.890625q-0.515625 0.453125 -1.15625 0.71875q-0.640625 0.265625 -1.34375 0.265625zm6.0147705 0q-0.984375 0 -1.640625 -0.5625q-0.640625 -0.578125 -0.640625 -1.640625q0 -1.28125 1.140625 -1.953125q1.140625 -0.6875 3.625 -0.953125q0 -0.375 -0.078125 -0.71875q-0.0625 -0.359375 -0.234375 -0.625q-0.171875 -0.28125 -0.484375 -0.4375q-0.3125 -0.171875 -0.796875 -0.171875q-0.671875 0 -1.265625 0.25q-0.59375 0.25 -1.046875 0.578125l-0.515625 -0.90625q0.546875 -0.359375 1.328125 -0.6875q0.78125 -0.328125 1.71875 -0.328125q1.421875 0 2.0625 0.875q0.640625 0.875 0.640625 2.328125l0 4.765625l-1.078125 0l-0.109375 -0.921875l-0.046875 0q-0.5625 0.453125 -1.203125 0.78125q-0.640625 0.328125 -1.375 0.328125zm0.375 -1.046875q0.5625 0 1.0625 -0.265625q0.5 -0.265625 1.046875 -0.78125l0 -2.15625q-0.96875 0.125 -1.640625 0.3125q-0.65625 0.171875 -1.0625 0.40625q-0.40625 0.234375 -0.59375 0.546875q-0.1875 0.3125 -0.1875 0.6875q0 0.671875 0.390625 0.96875q0.40625 0.28125 0.984375 0.28125zm7.282776 1.046875q-0.75 0 -1.078125 -0.4375q-0.3125 -0.453125 -0.3125 -1.3125l0 -9.828125l1.3125 0l0 9.921875q0 0.3125 0.109375 0.453125q0.109375 0.125 0.25 0.125q0.078125 0 0.125 0q0.0625 0 0.171875 -0.03125l0.171875 0.984375q-0.125 0.0625 -0.3125 0.09375q-0.171875 0.03125 -0.4375 0.03125zm8.936249 0q-1.109375 0 -2.0625 -0.40625q-0.9375 -0.421875 -1.625 -1.140625l0.796875 -0.921875q0.5625 0.578125 1.3125 0.953125q0.765625 0.359375 1.59375 0.359375q1.03125 0 1.609375 -0.46875q0.578125 -0.484375 0.578125 -1.25q0 -0.40625 -0.140625 -0.671875q-0.140625 -0.28125 -0.375 -0.484375q-0.21875 -0.203125 -0.546875 -0.359375q-0.3125 -0.171875 -0.6875 -0.34375l-1.5 -0.65625q-0.375 -0.15625 -0.765625 -0.375q-0.375 -0.234375 -0.6875 -0.546875q-0.296875 -0.328125 -0.484375 -0.765625q-0.1875 -0.4375 -0.1875 -1.015625q0 -0.59375 0.25 -1.09375q0.25 -0.515625 0.6875 -0.890625q0.4375 -0.375 1.03125 -0.578125q0.609375 -0.21875 1.328125 -0.21875q0.9375 0 1.734375 0.359375q0.8125 0.359375 1.359375 0.9375l-0.71875 0.859375q-0.46875 -0.453125 -1.0625 -0.71875q-0.578125 -0.265625 -1.3125 -0.265625q-0.890625 0 -1.421875 0.40625q-0.53125 0.40625 -0.53125 1.125q0 0.390625 0.140625 0.65625q0.15625 0.25 0.40625 0.453125q0.265625 0.203125 0.5625 0.359375q0.3125 0.140625 0.625 0.28125l1.5 0.640625q0.4375 0.1875 0.84375 0.4375q0.40625 0.25 0.6875 0.578125q0.28125 0.328125 0.453125 0.765625q0.171875 0.4375 0.171875 1.015625q0 0.625 -0.25 1.171875q-0.25 0.53125 -0.71875 0.953125q-0.453125 0.40625 -1.109375 0.640625q-0.65625 0.21875 -1.484375 0.21875zm8.653412 0q-0.78125 0 -1.46875 -0.28125q-0.6875 -0.28125 -1.1875 -0.796875q-0.5 -0.515625 -0.796875 -1.265625q-0.28125 -0.75 -0.28125 -1.71875q0 -0.953125 0.296875 -1.71875q0.296875 -0.765625 0.78125 -1.28125q0.484375 -0.53125 1.109375 -0.8125q0.625 -0.28125 1.296875 -0.28125q0.734375 0 1.3125 0.265625q0.59375 0.25 0.984375 0.734375q0.390625 0.46875 0.59375 1.140625q0.21875 0.671875 0.21875 1.515625q0 0.203125 -0.015625 0.40625q0 0.1875 -0.03125 0.34375l-5.25 0q0.078125 1.25 0.765625 1.984375q0.703125 0.71875 1.828125 0.71875q0.5625 0 1.03125 -0.171875q0.46875 -0.171875 0.90625 -0.4375l0.46875 0.859375q-0.515625 0.328125 -1.140625 0.5625q-0.625 0.234375 -1.421875 0.234375zm-2.453125 -4.703125l4.15625 0q0 -1.1875 -0.5 -1.796875q-0.5 -0.609375 -1.421875 -0.609375q-0.40625 0 -0.78125 0.15625q-0.375 0.15625 -0.6875 0.46875q-0.296875 0.3125 -0.5 0.765625q-0.203125 0.4375 -0.265625 1.015625zm7.2328796 4.515625l0 -7.78125l1.09375 0l0.109375 1.40625l0.046875 0q0.390625 -0.734375 0.953125 -1.15625q0.578125 -0.4375 1.25 -0.4375q0.46875 0 0.828125 0.15625l-0.25 1.15625q-0.1875 -0.0625 -0.359375 -0.09375q-0.15625 -0.03125 -0.390625 -0.03125q-0.5 0 -1.03125 0.40625q-0.53125 0.390625 -0.9375 1.390625l0 4.984375l-1.3125 0zm7.2239075 0l-2.796875 -7.78125l1.359375 0l1.484375 4.421875q0.171875 0.578125 0.34375 1.15625q0.1875 0.578125 0.375 1.125l0.0625 0q0.171875 -0.546875 0.34375 -1.125q0.1875 -0.578125 0.359375 -1.15625l1.46875 -4.421875l1.296875 0l-2.75 7.78125l-1.546875 0zm8.95639 0.1875q-0.78125 0 -1.46875 -0.28125q-0.6875 -0.28125 -1.1875 -0.796875q-0.5 -0.515625 -0.796875 -1.265625q-0.28125 -0.75 -0.28125 -1.71875q0 -0.953125 0.296875 -1.71875q0.296875 -0.765625 0.78125 -1.28125q0.484375 -0.53125 1.109375 -0.8125q0.625 -0.28125 1.296875 -0.28125q0.734375 0 1.3125 0.265625q0.59375 0.25 0.984375 0.734375q0.390625 0.46875 0.59375 1.140625q0.21875 0.671875 0.21875 1.515625q0 0.203125 -0.015625 0.40625q0 0.1875 -0.03125 0.34375l-5.25 0q0.078125 1.25 0.765625 1.984375q0.703125 0.71875 1.828125 0.71875q0.5625 0 1.03125 -0.171875q0.46875 -0.171875 0.90625 -0.4375l0.46875 0.859375q-0.515625 0.328125 -1.140625 0.5625q-0.625 0.234375 -1.421875 0.234375zm-2.453125 -4.703125l4.15625 0q0 -1.1875 -0.5 -1.796875q-0.5 -0.609375 -1.421875 -0.609375q-0.40625 0 -0.78125 0.15625q-0.375 0.15625 -0.6875 0.46875q-0.296875 0.3125 -0.5 0.765625q-0.203125 0.4375 -0.265625 1.015625zm7.2328796 4.515625l0 -7.78125l1.09375 0l0.109375 1.40625l0.046875 0q0.390625 -0.734375 0.953125 -1.15625q0.578125 -0.4375 1.25 -0.4375q0.46875 0 0.828125 0.15625l-0.25 1.15625q-0.1875 -0.0625 -0.359375 -0.09375q-0.15625 -0.03125 -0.390625 -0.03125q-0.5 0 -1.03125 0.40625q-0.53125 0.390625 -0.9375 1.390625l0 4.984375l-1.3125 0z" fill-rule="nonzero"/><path fill="#eee8d5" d="m104.73753 266.99344l0 0c0 -3.7108765 3.0082703 -6.7191467 6.719162 -6.7191467l381.08136 0c1.7820435 0 3.4910889 0.70788574 4.7511597 1.9679871c1.2601013 1.2600708 1.9680176 2.9691162 1.9680176 4.7511597l0 26.876648c0 3.7108765 -3.0082703 6.7191467 -6.7191772 6.7191467l-381.08136 0l0 0c-3.7108917 0 -6.719162 -3.0082703 -6.719162 -6.7191467z" fill-rule="evenodd"/><path stroke="#268bd2" stroke-width="4.0" stroke-linejoin="round" stroke-linecap="butt" d="m104.73753 266.99344l0 0c0 -3.7108765 3.0082703 -6.7191467 6.719162 -6.7191467l381.08136 0c1.7820435 0 3.4910889 0.70788574 4.7511597 1.9679871c1.2601013 1.2600708 1.9680176 2.9691162 1.9680176 4.7511597l0 26.876648c0 3.7108765 -3.0082703 6.7191467 -6.7191772 6.7191467l-381.08136 0l0 0c-3.7108917 0 -6.719162 -3.0082703 -6.719162 -6.7191467z" fill-rule="evenodd"/><path fill="#268bd2" d="m235.95474 286.29175l0 -10.5l1.328125 0l0 4.40625l4.875 0l0 -4.40625l1.34375 0l0 10.5l-1.34375 0l0 -4.9375l-4.875 0l0 4.9375l-1.328125 0zm13.338272 0.1875q-0.734375 0 -1.390625 -0.265625q-0.640625 -0.28125 -1.140625 -0.796875q-0.484375 -0.515625 -0.78125 -1.265625q-0.296875 -0.765625 -0.296875 -1.734375q0 -0.96875 0.296875 -1.734375q0.296875 -0.765625 0.78125 -1.28125q0.5 -0.53125 1.140625 -0.796875q0.65625 -0.28125 1.390625 -0.28125q0.71875 0 1.359375 0.28125q0.65625 0.265625 1.140625 0.796875q0.5 0.515625 0.796875 1.28125q0.296875 0.765625 0.296875 1.734375q0 0.96875 -0.296875 1.734375q-0.296875 0.75 -0.796875 1.265625q-0.484375 0.515625 -1.140625 0.796875q-0.640625 0.265625 -1.359375 0.265625zm0 -1.078125q0.484375 0 0.890625 -0.21875q0.421875 -0.21875 0.71875 -0.609375q0.296875 -0.390625 0.453125 -0.9375q0.171875 -0.546875 0.171875 -1.21875q0 -0.671875 -0.171875 -1.21875q-0.15625 -0.546875 -0.453125 -0.953125q-0.296875 -0.40625 -0.71875 -0.609375q-0.40625 -0.21875 -0.890625 -0.21875q-0.5 0 -0.921875 0.21875q-0.40625 0.203125 -0.703125 0.609375q-0.296875 0.40625 -0.46875 0.953125q-0.15625 0.546875 -0.15625 1.21875q0 0.671875 0.15625 1.21875q0.171875 0.546875 0.46875 0.9375q0.296875 0.390625 0.703125 0.609375q0.421875 0.21875 0.921875 0.21875zm7.6720123 1.078125q-0.828125 0 -1.578125 -0.296875q-0.75 -0.3125 -1.3125 -0.765625l0.65625 -0.890625q0.5 0.421875 1.03125 0.6875q0.546875 0.25 1.25 0.25q0.765625 0 1.140625 -0.34375q0.390625 -0.359375 0.390625 -0.875q0 -0.3125 -0.15625 -0.53125q-0.15625 -0.21875 -0.40625 -0.390625q-0.25 -0.171875 -0.578125 -0.296875q-0.3125 -0.125 -0.625 -0.25q-0.421875 -0.140625 -0.84375 -0.328125q-0.40625 -0.1875 -0.734375 -0.453125q-0.328125 -0.265625 -0.546875 -0.609375q-0.203125 -0.359375 -0.203125 -0.859375q0 -0.453125 0.1875 -0.859375q0.1875 -0.421875 0.53125 -0.703125q0.34375 -0.296875 0.828125 -0.46875q0.5 -0.171875 1.125 -0.171875q0.734375 0 1.34375 0.265625q0.625 0.25 1.078125 0.609375l-0.625 0.84375q-0.40625 -0.3125 -0.84375 -0.5q-0.421875 -0.1875 -0.9375 -0.1875q-0.734375 0 -1.078125 0.34375q-0.34375 0.328125 -0.34375 0.765625q0 0.28125 0.140625 0.484375q0.15625 0.1875 0.390625 0.34375q0.234375 0.15625 0.546875 0.28125q0.3125 0.109375 0.65625 0.234375q0.40625 0.171875 0.828125 0.34375q0.4375 0.171875 0.765625 0.4375q0.34375 0.265625 0.546875 0.65625q0.21875 0.375 0.21875 0.921875q0 0.484375 -0.1875 0.90625q-0.171875 0.40625 -0.53125 0.734375q-0.359375 0.3125 -0.90625 0.484375q-0.53125 0.1875 -1.21875 0.1875zm7.125885 0q-0.625 0 -1.0625 -0.1875q-0.421875 -0.1875 -0.6875 -0.515625q-0.25 -0.34375 -0.375 -0.828125q-0.109375 -0.484375 -0.109375 -1.0625l0 -4.296875l-1.140625 0l0 -1.0l1.203125 -0.078125l0.171875 -2.171875l1.09375 0l0 2.171875l2.09375 0l0 1.078125l-2.09375 0l0 4.3125q0 0.734375 0.265625 1.125q0.265625 0.390625 0.9375 0.390625q0.203125 0 0.4375 -0.0625q0.25 -0.078125 0.4375 -0.15625l0.265625 1.0q-0.328125 0.109375 -0.703125 0.1875q-0.375 0.09375 -0.734375 0.09375zm10.154907 0q-1.0 0 -1.828125 -0.375q-0.8125 -0.390625 -1.40625 -1.09375q-0.59375 -0.71875 -0.921875 -1.734375q-0.328125 -1.015625 -0.328125 -2.28125q0 -1.265625 0.328125 -2.265625q0.328125 -1.0 0.921875 -1.6875q0.59375 -0.703125 1.40625 -1.0625q0.828125 -0.375 1.828125 -0.375q0.984375 0 1.8125 0.375q0.828125 0.375 1.421875 1.078125q0.609375 0.6875 0.9375 1.6875q0.328125 1.0 0.328125 2.25q0 1.265625 -0.328125 2.28125q-0.328125 1.015625 -0.9375 1.734375q-0.59375 0.703125 -1.421875 1.09375q-0.828125 0.375 -1.8125 0.375zm0 -1.15625q0.703125 0 1.265625 -0.296875q0.578125 -0.3125 0.984375 -0.875q0.40625 -0.578125 0.625 -1.359375q0.234375 -0.796875 0.234375 -1.796875q0 -0.96875 -0.234375 -1.75q-0.21875 -0.796875 -0.625 -1.328125q-0.40625 -0.546875 -0.984375 -0.84375q-0.5625 -0.296875 -1.265625 -0.296875q-0.703125 0 -1.28125 0.296875q-0.5625 0.296875 -0.96875 0.84375q-0.40625 0.53125 -0.640625 1.328125q-0.21875 0.78125 -0.21875 1.75q0 1.0 0.21875 1.796875q0.234375 0.78125 0.640625 1.359375q0.40625 0.5625 0.96875 0.875q0.578125 0.296875 1.28125 0.296875zm9.670898 1.15625q-1.109375 0 -2.0625 -0.40625q-0.9375 -0.421875 -1.625 -1.140625l0.796875 -0.921875q0.5625 0.578125 1.3125 0.953125q0.765625 0.359375 1.59375 0.359375q1.03125 0 1.609375 -0.46875q0.578125 -0.484375 0.578125 -1.25q0 -0.40625 -0.140625 -0.671875q-0.140625 -0.28125 -0.375 -0.484375q-0.21875 -0.203125 -0.546875 -0.359375q-0.3125 -0.171875 -0.6875 -0.34375l-1.5 -0.65625q-0.375 -0.15625 -0.765625 -0.375q-0.375 -0.234375 -0.6875 -0.546875q-0.296875 -0.328125 -0.484375 -0.765625q-0.1875 -0.4375 -0.1875 -1.015625q0 -0.59375 0.25 -1.09375q0.25 -0.515625 0.6875 -0.890625q0.4375 -0.375 1.03125 -0.578125q0.609375 -0.21875 1.328125 -0.21875q0.9375 0 1.734375 0.359375q0.8125 0.359375 1.359375 0.9375l-0.71875 0.859375q-0.46875 -0.453125 -1.0625 -0.71875q-0.578125 -0.265625 -1.3125 -0.265625q-0.890625 0 -1.421875 0.40625q-0.53125 0.40625 -0.53125 1.125q0 0.390625 0.140625 0.65625q0.15625 0.25 0.40625 0.453125q0.265625 0.203125 0.5625 0.359375q0.3125 0.140625 0.625 0.28125l1.5 0.640625q0.4375 0.1875 0.84375 0.4375q0.40625 0.25 0.6875 0.578125q0.28125 0.328125 0.453125 0.765625q0.171875 0.4375 0.171875 1.015625q0 0.625 -0.25 1.171875q-0.25 0.53125 -0.71875 0.953125q-0.453125 0.40625 -1.109375 0.640625q-0.65625 0.21875 -1.484375 0.21875zm10.806519 2.625q-0.984375 -1.59375 -1.546875 -3.375q-0.5625 -1.78125 -0.5625 -3.890625q0 -2.109375 0.5625 -3.875q0.5625 -1.765625 1.546875 -3.390625l0.8125 0.390625q-0.921875 1.53125 -1.375 3.296875q-0.453125 1.75 -0.453125 3.578125q0 1.84375 0.453125 3.59375q0.453125 1.75 1.375 3.296875l-0.8125 0.375zm2.8636475 -2.8125l0 -10.5l1.328125 0l0 9.359375l4.59375 0l0 1.140625l-5.921875 0zm7.651001 0l0 -7.78125l1.3125 0l0 7.78125l-1.3125 0zm0.671875 -9.375q-0.390625 0 -0.65625 -0.234375q-0.25 -0.25 -0.25 -0.609375q0 -0.390625 0.25 -0.625q0.265625 -0.234375 0.65625 -0.234375q0.390625 0 0.640625 0.234375q0.265625 0.234375 0.265625 0.625q0 0.359375 -0.265625 0.609375q-0.25 0.234375 -0.640625 0.234375zm3.2641296 9.375l0 -7.78125l1.09375 0l0.109375 1.125l0.046875 0q0.5625 -0.5625 1.171875 -0.9375q0.625 -0.375 1.4375 -0.375q1.234375 0 1.796875 0.765625q0.5625 0.765625 0.5625 2.28125l0 4.921875l-1.3125 0l0 -4.75q0 -1.109375 -0.359375 -1.59375q-0.34375 -0.484375 -1.109375 -0.484375q-0.609375 0 -1.078125 0.3125q-0.453125 0.296875 -1.046875 0.890625l0 5.625l-1.3125 0zm11.017639 0.1875q-1.234375 0 -1.8125 -0.765625q-0.5625 -0.765625 -0.5625 -2.265625l0 -4.9375l1.328125 0l0 4.75q0 1.109375 0.34375 1.609375q0.34375 0.484375 1.109375 0.484375q0.609375 0 1.0625 -0.3125q0.46875 -0.3125 1.03125 -1.0l0 -5.53125l1.3125 0l0 7.78125l-1.09375 0l-0.109375 -1.21875l-0.046875 0q-0.546875 0.640625 -1.140625 1.03125q-0.59375 0.375 -1.421875 0.375zm5.3446655 -0.1875l2.546875 -4.0625l-2.34375 -3.71875l1.421875 0l1.03125 1.71875q0.1875 0.3125 0.375 0.640625q0.1875 0.328125 0.390625 0.65625l0.078125 0q0.171875 -0.328125 0.34375 -0.65625q0.171875 -0.328125 0.359375 -0.640625l0.9375 -1.71875l1.375 0l-2.34375 3.859375l2.515625 3.921875l-1.421875 0l-1.125 -1.8125q-0.21875 -0.34375 -0.421875 -0.6875q-0.203125 -0.359375 -0.4375 -0.703125l-0.0625 0q-0.203125 0.34375 -0.40625 0.6875q-0.1875 0.34375 -0.375 0.703125l-1.0625 1.8125l-1.375 0zm14.461029 0.1875q-0.734375 0 -1.390625 -0.265625q-0.640625 -0.28125 -1.140625 -0.796875q-0.484375 -0.515625 -0.78125 -1.265625q-0.296875 -0.765625 -0.296875 -1.734375q0 -0.96875 0.296875 -1.734375q0.296875 -0.765625 0.78125 -1.28125q0.5 -0.53125 1.140625 -0.796875q0.65625 -0.28125 1.390625 -0.28125q0.71875 0 1.359375 0.28125q0.65625 0.265625 1.140625 0.796875q0.5 0.515625 0.796875 1.28125q0.296875 0.765625 0.296875 1.734375q0 0.96875 -0.296875 1.734375q-0.296875 0.75 -0.796875 1.265625q-0.484375 0.515625 -1.140625 0.796875q-0.640625 0.265625 -1.359375 0.265625zm0 -1.078125q0.484375 0 0.890625 -0.21875q0.421875 -0.21875 0.71875 -0.609375q0.296875 -0.390625 0.453125 -0.9375q0.171875 -0.546875 0.171875 -1.21875q0 -0.671875 -0.171875 -1.21875q-0.15625 -0.546875 -0.453125 -0.953125q-0.296875 -0.40625 -0.71875 -0.609375q-0.40625 -0.21875 -0.890625 -0.21875q-0.5 0 -0.921875 0.21875q-0.40625 0.203125 -0.703125 0.609375q-0.296875 0.40625 -0.46875 0.953125q-0.15625 0.546875 -0.15625 1.21875q0 0.671875 0.15625 1.21875q0.171875 0.546875 0.46875 0.9375q0.296875 0.390625 0.703125 0.609375q0.421875 0.21875 0.921875 0.21875zm5.640747 0.890625l0 -7.78125l1.09375 0l0.109375 1.125l0.046875 0q0.5625 -0.5625 1.171875 -0.9375q0.625 -0.375 1.4375 -0.375q1.234375 0 1.796875 0.765625q0.5625 0.765625 0.5625 2.28125l0 4.921875l-1.3125 0l0 -4.75q0 -1.109375 -0.359375 -1.59375q-0.34375 -0.484375 -1.109375 -0.484375q-0.609375 0 -1.078125 0.3125q-0.453125 0.296875 -1.046875 0.890625l0 5.625l-1.3125 0zm10.142639 0.1875q-0.75 0 -1.078125 -0.4375q-0.3125 -0.453125 -0.3125 -1.3125l0 -9.828125l1.3125 0l0 9.921875q0 0.3125 0.109375 0.453125q0.109375 0.125 0.25 0.125q0.078125 0 0.125 0q0.0625 0 0.171875 -0.03125l0.171875 0.984375q-0.125 0.0625 -0.3125 0.09375q-0.171875 0.03125 -0.4375 0.03125zm2.814392 3.15625q-0.265625 0 -0.5 -0.046875q-0.21875 -0.03125 -0.40625 -0.109375l0.25 -1.046875q0.125 0.03125 0.28125 0.0625q0.171875 0.046875 0.3125 0.046875q0.671875 0 1.09375 -0.46875q0.421875 -0.46875 0.671875 -1.1875l0.171875 -0.578125l-3.125 -7.796875l1.359375 0l1.59375 4.3125q0.171875 0.515625 0.375 1.078125q0.203125 0.5625 0.375 1.109375l0.0625 0q0.171875 -0.53125 0.328125 -1.09375q0.171875 -0.578125 0.328125 -1.09375l1.3905945 -4.3125l1.28125 0l-2.9218445 8.421875q-0.21875 0.578125 -0.484375 1.0625q-0.25 0.5 -0.609375 0.859375q-0.34375 0.359375 -0.796875 0.5625q-0.4375 0.21875 -1.03125 0.21875zm7.4563904 -0.53125l-0.8125 -0.375q0.921875 -1.546875 1.375 -3.296875q0.46875 -1.75 0.46875 -3.59375q0 -1.828125 -0.46875 -3.578125q-0.453125 -1.765625 -1.375 -3.296875l0.8125 -0.390625q1.0 1.625 1.546875 3.390625q0.5625 1.765625 0.5625 3.875q0 2.109375 -0.5625 3.890625q-0.546875 1.78125 -1.546875 3.375z" fill-rule="nonzero"/><path fill="#eee8d5" d="m99.666664 156.58923l0 0c0 -5.534439 4.486557 -10.020996 10.021004 -10.020996l138.91862 0c2.6577454 0 5.2066193 1.0557861 7.0859222 2.935089c1.8792877 1.879303 2.9350739 4.428177 2.9350739 7.085907l0 40.084c0 5.534439 -4.4865417 10.020996 -10.020996 10.020996l-138.91862 0l0 0c-5.5344467 0 -10.021004 -4.486557 -10.021004 -10.020996z" fill-rule="evenodd"/><path stroke="#586e75" stroke-width="2.0" stroke-linejoin="round" stroke-linecap="butt" d="m99.666664 156.58923l0 0c0 -5.534439 4.486557 -10.020996 10.021004 -10.020996l138.91862 0c2.6577454 0 5.2066193 1.0557861 7.0859222 2.935089c1.8792877 1.879303 2.9350739 4.428177 2.9350739 7.085907l0 40.084c0 5.534439 -4.4865417 10.020996 -10.020996 10.020996l-138.91862 0l0 0c-5.5344467 0 -10.021004 -4.486557 -10.021004 -10.020996z" fill-rule="evenodd"/><path fill="#eee8d5" d="m139.6181 159.83333l0 0c0 -4.638611 3.7603455 -8.398941 8.398956 -8.398941l62.257217 0c2.227539 0 4.363846 0.8848877 5.9389496 2.4599915c1.575119 1.5751038 2.4600067 3.7114105 2.4600067 5.9389496l0 33.59581c0 4.638611 -3.7603455 8.398941 -8.398956 8.398941l-62.257217 0c-4.638611 0 -8.398956 -3.7603302 -8.398956 -8.398941z" fill-rule="evenodd"/><path stroke="#d33682" stroke-width="4.0" stroke-linejoin="round" stroke-linecap="butt" d="m139.6181 159.83333l0 0c0 -4.638611 3.7603455 -8.398941 8.398956 -8.398941l62.257217 0c2.227539 0 4.363846 0.8848877 5.9389496 2.4599915c1.575119 1.5751038 2.4600067 3.7114105 2.4600067 5.9389496l0 33.59581c0 4.638611 -3.7603455 8.398941 -8.398956 8.398941l-62.257217 0c-4.638611 0 -8.398956 -3.7603302 -8.398956 -8.398941z" fill-rule="evenodd"/><path fill="#d33682" d="m163.38315 172.99123l0 -10.5l3.125 0q0.796875 0 1.453125 0.15625q0.671875 0.140625 1.140625 0.453125q0.46875 0.296875 0.734375 0.78125q0.265625 0.484375 0.265625 1.171875q0 0.78125 -0.390625 1.421875q-0.390625 0.625 -1.140625 0.875l0 0.0625q0.953125 0.171875 1.546875 0.796875q0.59375 0.625 0.59375 1.703125q0 0.78125 -0.296875 1.359375q-0.28125 0.5625 -0.8125 0.953125q-0.515625 0.375 -1.265625 0.578125q-0.734375 0.1875 -1.609375 0.1875l-3.34375 0zm1.328125 -6.03125l1.546875 0q1.34375 0 1.9375 -0.453125q0.59375 -0.46875 0.59375 -1.28125q0 -0.90625 -0.625 -1.28125q-0.609375 -0.390625 -1.828125 -0.390625l-1.625 0l0 3.40625zm0 4.96875l1.828125 0q1.359375 0 2.109375 -0.5q0.75 -0.5 0.75 -1.5625q0 -0.96875 -0.734375 -1.421875q-0.734375 -0.46875 -2.125 -0.46875l-1.828125 0l0 3.953125zm7.954895 1.0625l0 -7.78125l1.3125 0l0 7.78125l-1.3125 0zm0.671875 -9.375q-0.390625 0 -0.65625 -0.234375q-0.25 -0.25 -0.25 -0.609375q0 -0.390625 0.25 -0.625q0.265625 -0.234375 0.65625 -0.234375q0.390625 0 0.640625 0.234375q0.26560974 0.234375 0.26560974 0.625q0 0.359375 -0.26560974 0.609375q-0.25 0.234375 -0.640625 0.234375zm3.2641144 9.375l0 -7.78125l1.09375 0l0.109375 1.125l0.046875 0q0.5625 -0.5625 1.171875 -0.9375q0.625 -0.375 1.4375 -0.375q1.234375 0 1.796875 0.765625q0.5625 0.765625 0.5625 2.28125l0 4.921875l-1.3125 0l0 -4.75q0 -1.109375 -0.359375 -1.59375q-0.34375 -0.484375 -1.109375 -0.484375q-0.609375 0 -1.078125 0.3125q-0.453125 0.296875 -1.046875 0.890625l0 5.625l-1.3125 0zm10.783264 0.1875q-0.828125 0 -1.578125 -0.296875q-0.75 -0.3125 -1.3125 -0.765625l0.65625 -0.890625q0.5 0.421875 1.03125 0.6875q0.546875 0.25 1.25 0.25q0.765625 0 1.140625 -0.34375q0.390625 -0.359375 0.390625 -0.875q0 -0.3125 -0.15625 -0.53125q-0.15625 -0.21875 -0.40625 -0.390625q-0.25 -0.171875 -0.578125 -0.296875q-0.3125 -0.125 -0.625 -0.25q-0.421875 -0.140625 -0.84375 -0.328125q-0.40625 -0.1875 -0.734375 -0.453125q-0.328125 -0.265625 -0.546875 -0.609375q-0.203125 -0.359375 -0.203125 -0.859375q0 -0.453125 0.1875 -0.859375q0.1875 -0.421875 0.53125 -0.703125q0.34375 -0.296875 0.828125 -0.46875q0.5 -0.171875 1.125 -0.171875q0.734375 0 1.34375 0.265625q0.625 0.25 1.078125 0.609375l-0.625 0.84375q-0.40625 -0.3125 -0.84375 -0.5q-0.421875 -0.1875 -0.9375 -0.1875q-0.734375 0 -1.078125 0.34375q-0.34375 0.328125 -0.34375 0.765625q0 0.28125 0.140625 0.484375q0.15625 0.1875 0.390625 0.34375q0.234375 0.15625 0.546875 0.28125q0.3125 0.109375 0.65625 0.234375q0.40625 0.171875 0.828125 0.34375q0.4375 0.171875 0.765625 0.4375q0.34375 0.265625 0.546875 0.65625q0.21875 0.375 0.21875 0.921875q0 0.484375 -0.1875 0.90625q-0.171875 0.40625 -0.53125 0.734375q-0.359375 0.3125 -0.90625 0.484375q-0.53125 0.1875 -1.21875 0.1875zm3.51651 2.375l4.28125 -13.921875l0.953125 0l-4.265625 13.921875l-0.96875 0z" fill-rule="nonzero"/><path fill="#d33682" d="m166.95114 191.99123l0 -10.5l1.328125 0l0 9.359375l4.59375 0l0 1.140625l-5.921875 0zm7.651016 0l0 -7.78125l1.3125 0l0 7.78125l-1.3125 0zm0.671875 -9.375q-0.390625 0 -0.65625 -0.234375q-0.25 -0.25 -0.25 -0.609375q0 -0.390625 0.25 -0.625q0.265625 -0.234375 0.65625 -0.234375q0.390625 0 0.640625 0.234375q0.265625 0.234375 0.265625 0.625q0 0.359375 -0.265625 0.609375q-0.25 0.234375 -0.640625 0.234375zm6.7016296 9.5625q-0.546875 0 -1.125 -0.265625q-0.578125 -0.265625 -1.09375 -0.71875l-0.046875 0l-0.109375 0.796875l-1.0625 0l0 -11.390625l1.3125 0l0 3.109375l-0.03125 1.40625q0.53125 -0.46875 1.15625 -0.78125q0.625 -0.3125 1.28125 -0.3125q0.75 0 1.3125 0.28125q0.578125 0.28125 0.96875 0.796875q0.40625 0.515625 0.59375 1.25q0.203125 0.734375 0.203125 1.625q0 0.984375 -0.28125 1.78125q-0.265625 0.78125 -0.734375 1.328125q-0.453125 0.53125 -1.0625 0.8125q-0.609375 0.28125 -1.28125 0.28125zm-0.21875 -1.09375q0.484375 0 0.890625 -0.21875q0.40625 -0.21875 0.703125 -0.609375q0.296875 -0.390625 0.453125 -0.96875q0.171875 -0.578125 0.171875 -1.296875q0 -0.640625 -0.109375 -1.171875q-0.109375 -0.53125 -0.359375 -0.90625q-0.25 -0.375 -0.640625 -0.578125q-0.390625 -0.203125 -0.9375 -0.203125q-0.9375 0 -2.078125 1.046875l0 4.078125q0.515625 0.453125 1.015625 0.640625q0.5 0.1875 0.890625 0.1875zm7.6605225 1.09375q-0.828125 0 -1.578125 -0.296875q-0.75 -0.3125 -1.3125 -0.765625l0.65625 -0.890625q0.5 0.421875 1.03125 0.6875q0.546875 0.25 1.25 0.25q0.765625 0 1.140625 -0.34375q0.390625 -0.359375 0.390625 -0.875q0 -0.3125 -0.15625 -0.53125q-0.15625 -0.21875 -0.40625 -0.390625q-0.25 -0.171875 -0.578125 -0.296875q-0.3125 -0.125 -0.625 -0.25q-0.421875 -0.140625 -0.84375 -0.328125q-0.40625 -0.1875 -0.734375 -0.453125q-0.328125 -0.265625 -0.546875 -0.609375q-0.203125 -0.359375 -0.203125 -0.859375q0 -0.453125 0.1875 -0.859375q0.1875 -0.421875 0.53125 -0.703125q0.34375 -0.296875 0.828125 -0.46875q0.5 -0.171875 1.125 -0.171875q0.734375 0 1.34375 0.265625q0.625 0.25 1.078125 0.609375l-0.625 0.84375q-0.40625 -0.3125 -0.84375 -0.5q-0.421875 -0.1875 -0.9375 -0.1875q-0.734375 0 -1.078125 0.34375q-0.34375 0.328125 -0.34375 0.765625q0 0.28125 0.140625 0.484375q0.15625 0.1875 0.390625 0.34375q0.234375 0.15625 0.546875 0.28125q0.3125 0.109375 0.65625 0.234375q0.40625 0.171875 0.828125 0.34375q0.4375 0.171875 0.765625 0.4375q0.34375 0.265625 0.546875 0.65625q0.21875 0.375 0.21875 0.921875q0 0.484375 -0.1875 0.90625q-0.171875 0.40625 -0.53125 0.734375q-0.359375 0.3125 -0.90625 0.484375q-0.53125 0.1875 -1.21875 0.1875z" fill-rule="nonzero"/><path fill="#eee8d5" d="m99.66404 82.374016l0 0c0 -6.566536 5.3232346 -11.889763 11.889763 -11.889763l51.81102 0c3.153366 0 6.177582 1.2526703 8.407333 3.4824295c2.2297668 2.2297668 3.4824371 5.253975 3.4824371 8.407333l0 47.55906c0 6.5665283 -5.323227 11.889755 -11.8897705 11.889755l-51.81102 0c-6.5665283 0 -11.889763 -5.323227 -11.889763 -11.889755z" fill-rule="evenodd"/><path stroke="#586e75" stroke-width="2.0" stroke-linejoin="round" stroke-linecap="butt" d="m99.66404 82.374016l0 0c0 -6.566536 5.3232346 -11.889763 11.889763 -11.889763l51.81102 0c3.153366 0 6.177582 1.2526703 8.407333 3.4824295c2.2297668 2.2297668 3.4824371 5.253975 3.4824371 8.407333l0 47.55906c0 6.5665283 -5.323227 11.889755 -11.8897705 11.889755l-51.81102 0c-6.5665283 0 -11.889763 -5.323227 -11.889763 -11.889755z" fill-rule="evenodd"/><path fill="#eee8d5" d="m107.291336 88.41076l0 0c0 -4.638611 3.7603378 -8.398949 8.398956 -8.398949l43.80052 0c2.227539 0 4.363846 0.8848877 5.9389496 2.459999c1.575119 1.5751038 2.4600067 3.7114105 2.4600067 5.9389496l0 33.595802c0 4.638611 -3.7603455 8.398956 -8.398956 8.398956l-43.80052 0c-4.6386185 0 -8.398956 -3.7603455 -8.398956 -8.398956z" fill-rule="evenodd"/><path stroke="#b58900" stroke-width="4.0" stroke-linejoin="round" stroke-linecap="butt" d="m107.291336 88.41076l0 0c0 -4.638611 3.7603378 -8.398949 8.398956 -8.398949l43.80052 0c2.227539 0 4.363846 0.8848877 5.9389496 2.459999c1.575119 1.5751038 2.4600067 3.7114105 2.4600067 5.9389496l0 33.595802c0 4.638611 -3.7603455 8.398956 -8.398956 8.398956l-43.80052 0c-4.6386185 0 -8.398956 -3.7603455 -8.398956 -8.398956z" fill-rule="evenodd"/><path fill="#b58900" d="m127.60852 95.693665l-0.5 1.609375l3.15625 0l-0.5 -1.609375q-0.28125 -0.875 -0.546875 -1.75q-0.25 -0.875 -0.5 -1.78125l-0.078125 0q-0.234375 0.90625 -0.5 1.78125q-0.25 0.875 -0.53125 1.75zm-3.203125 5.875l3.546875 -10.5l1.515625 0l3.546875 10.5l-1.421875 0l-1.0 -3.203125l-3.8125 0l-1.015625 3.203125l-1.359375 0zm9.96965 3.28125l0 -11.0625l1.09375 0l0.109375 0.90625l0.046875 0q0.53125 -0.453125 1.15625 -0.765625q0.640625 -0.328125 1.328125 -0.328125q0.75 0 1.3125 0.28125q0.578125 0.28125 0.96875 0.796875q0.390625 0.515625 0.578125 1.25q0.203125 0.734375 0.203125 1.640625q0 0.984375 -0.28125 1.765625q-0.265625 0.78125 -0.734375 1.328125q-0.453125 0.53125 -1.0625 0.8125q-0.609375 0.28125 -1.28125 0.28125q-0.546875 0 -1.078125 -0.234375q-0.53125 -0.234375 -1.078125 -0.65625l0.03125 1.359375l0 2.625l-1.3125 0zm3.21875 -4.1875q0.484375 0 0.890625 -0.21875q0.40625 -0.21875 0.703125 -0.609375q0.296875 -0.390625 0.453125 -0.96875q0.171875 -0.578125 0.171875 -1.296875q0 -0.640625 -0.109375 -1.171875q-0.109375 -0.53125 -0.359375 -0.90625q-0.25 -0.375 -0.640625 -0.578125q-0.390625 -0.203125 -0.9375 -0.203125q-0.5 0 -1.0 0.28125q-0.5 0.265625 -1.078125 0.765625l0 4.078125q0.53125 0.453125 1.015625 0.640625q0.5 0.1875 0.890625 0.1875zm5.66127 4.1875l0 -11.0625l1.09375 0l0.109375 0.90625l0.046875 0q0.53125 -0.453125 1.15625 -0.765625q0.640625 -0.328125 1.328125 -0.328125q0.75 0 1.3125 0.28125q0.578125 0.28125 0.96875 0.796875q0.390625 0.515625 0.578125 1.25q0.203125 0.734375 0.203125 1.640625q0 0.984375 -0.28125 1.765625q-0.265625 0.78125 -0.734375 1.328125q-0.453125 0.53125 -1.0625 0.8125q-0.609375 0.28125 -1.28125 0.28125q-0.546875 0 -1.078125 -0.234375q-0.53125 -0.234375 -1.078125 -0.65625l0.03125 1.359375l0 2.625l-1.3125 0zm3.21875 -4.1875q0.484375 0 0.890625 -0.21875q0.40625 -0.21875 0.703125 -0.609375q0.296875 -0.390625 0.453125 -0.96875q0.171875 -0.578125 0.171875 -1.296875q0 -0.640625 -0.109375 -1.171875q-0.109375 -0.53125 -0.359375 -0.90625q-0.25 -0.375 -0.640625 -0.578125q-0.390625 -0.203125 -0.9375 -0.203125q-0.5 0 -1.0 0.28125q-0.5 0.265625 -1.078125 0.765625l0 4.078125q0.53125 0.453125 1.015625 0.640625q0.5 0.1875 0.890625 0.1875z" fill-rule="nonzero"/><path fill="#b58900" d="m136.48854 114.693665l-0.5 1.609375l3.15625 0l-0.5 -1.609375q-0.28125 -0.875 -0.546875 -1.75q-0.25 -0.875 -0.5 -1.78125l-0.078125 0q-0.234375 0.90625 -0.5 1.78125q-0.25 0.875 -0.53125 1.75zm-3.203125 5.875l3.546875 -10.5l1.515625 0l3.546875 10.5l-1.421875 0l-1.0 -3.203125l-3.8125 0l-1.015625 3.203125l-1.359375 0z" fill-rule="nonzero"/><path fill="#000000" fill-opacity="0.0" d="m29.868767 201.0328l0 -172.50394l49.51181 0l0 172.50394z" fill-rule="evenodd"/><path fill="#657b83" d="m57.007515 149.15039q0 1.15625 -0.390625 2.1875q-0.40625 1.03125 -1.1875 1.8125q-0.78125 0.765625 -1.953125 1.21875q-1.171875 0.4375 -2.6875 0.4375q-1.515625 0 -2.703125 -0.46875q-1.1875 -0.46875 -2.0 -1.25q-0.828125 -0.78125 -1.25 -1.828125q-0.4375 -1.046875 -0.4375 -2.203125q0 -1.171875 0.484375 -2.09375q0.46875 -0.9375 1.109375 -1.5625l1.75 1.453125q-0.4375 0.46875 -0.703125 0.984375q-0.265625 0.515625 -0.265625 1.171875q0 0.609375 0.265625 1.171875q0.265625 0.546875 0.78125 0.953125q0.5 0.390625 1.234375 0.625q0.71875 0.234375 1.640625 0.234375q1.875 0 2.921875 -0.796875q1.03125 -0.8125 1.03125 -2.15625q0 -0.75 -0.328125 -1.328125q-0.328125 -0.59375 -0.8125 -1.046875l1.71875 -1.453125q1.78125 1.53125 1.78125 3.9375zm0 -9.529816q0 0.875 -0.3125 1.703125q-0.328125 0.8125 -0.9375 1.4375q-0.625 0.625 -1.53125 1.0q-0.90625 0.375 -2.0625 0.375q-1.15625 0 -2.0625 -0.375q-0.90625 -0.375 -1.515625 -1.0q-0.625 -0.625 -0.953125 -1.4375q-0.328125 -0.828125 -0.328125 -1.703125q0 -0.875 0.328125 -1.6875q0.328125 -0.8125 0.953125 -1.4375q0.609375 -0.625 1.515625 -1.0q0.90625 -0.375 2.0625 -0.375q1.15625 0 2.0625 0.375q0.90625 0.375 1.53125 1.0q0.609375 0.625 0.9375 1.4375q0.3125 0.8125 0.3125 1.6875zm-2.21875 0q0 -0.84375 -0.703125 -1.265625q-0.71875 -0.4375 -1.921875 -0.4375q-1.21875 0 -1.921875 0.4375q-0.703125 0.421875 -0.703125 1.265625q0 0.859375 0.703125 1.28125q0.703125 0.421875 1.921875 0.421875q1.203125 0 1.921875 -0.421875q0.703125 -0.421875 0.703125 -1.28125zm2.0 -6.3854675l-9.25 0l0 -2.234375l1.171875 -0.1875l0 -0.078125q-0.5625 -0.59375 -0.984375 -1.296875q-0.421875 -0.71875 -0.421875 -1.6562576q0 -1.515625 1.0 -2.1875q0.984375 -0.6875 2.734375 -0.6875l5.75 0l0 2.734375l-5.390625 0q-1.015625 0 -1.375 0.28125q-0.375 0.26563263 -0.375 0.8593826q0 0.515625 0.234375 0.890625q0.234375 0.375 0.65625 0.828125l6.25 0l0 2.734375zm0.21875 -14.233879q0 0.859375 -0.25 1.46875q-0.265625 0.609375 -0.734375 1.0q-0.46875 0.375 -1.125 0.5625q-0.671875 0.171875 -1.46875 0.171875l-3.75 0l0 1.265625l-2.03125 0l-0.109375 -1.421875l-2.46875 -0.3125l0 -2.28125l2.46875 0l0 -2.21875l2.140625 0l0 2.21875l3.71875 0q0.78125 0 1.125 -0.328125q0.34375 -0.328125 0.34375 -0.859375q0 -0.234375 -0.046875 -0.46875q-0.0625 -0.234375 -0.140625 -0.421875l2.0 -0.421875q0.109375 0.375 0.21875 0.875q0.109375 0.5 0.109375 1.171875zm0 -5.910965q0 0.640625 -0.21875 1.15625q-0.203125 0.5 -0.578125 0.859375q-0.390625 0.359375 -0.890625 0.5625q-0.515625 0.1875 -1.109375 0.1875q-1.453125 0 -2.265625 -1.234375q-0.828125 -1.234375 -1.109375 -3.96875q-0.609375 0.03125 -0.96875 0.359375q-0.375 0.328125 -0.375 1.09375q0 0.59375 0.234375 1.1875q0.21875 0.578125 0.609375 1.25l-1.8125 1.0q-0.546875 -0.90625 -0.875 -1.875q-0.34375 -0.984375 -0.34375 -2.09375q0 -1.78125 1.03125 -2.71875q1.015625 -0.953125 3.15625 -0.953125l5.296875 0l0 2.234375l-0.953125 0.1875l0 0.078125q0.53125 0.59375 0.859375 1.25q0.3125 0.65625 0.3125 1.4375zm-2.125 -0.9375q0 -0.453125 -0.203125 -0.78125q-0.203125 -0.34375 -0.578125 -0.71875l-1.625 0q0.203125 1.453125 0.59375 2.015625q0.390625 0.546875 0.9375 0.546875q0.453125 0 0.671875 -0.28125q0.203125 -0.296875 0.203125 -0.78125zm1.90625 -6.566223l-9.25 0l0 -2.734375l9.25 0l0 2.734375zm-10.609375 -1.359375q0 0.6875 -0.40625 1.140625q-0.40625 0.453125 -1.03125 0.453125q-0.640625 0 -1.03125 -0.453125q-0.390625 -0.453125 -0.390625 -1.140625q0 -0.703125 0.390625 -1.140625q0.390625 -0.4375 1.03125 -0.4375q0.625 0 1.03125 0.4375q0.40625 0.4375 0.40625 1.140625zm10.609375 -3.7897491l-9.25 0l0 -2.234375l1.171875 -0.1875l0 -0.078125q-0.5625 -0.59375 -0.984375 -1.296875q-0.421875 -0.71875 -0.421875 -1.65625q0 -1.515625 1.0 -2.1875q0.984375 -0.6875 2.734375 -0.6875l5.75 0l0 2.734375l-5.390625 0q-1.015625 0 -1.375 0.28125q-0.375 0.265625 -0.375 0.859375q0 0.515625 0.234375 0.890625q0.234375 0.375 0.65625 0.828125l6.25 0l0 2.734375zm0.21875 -14.811996q0 1.0 -0.3125 1.859375q-0.328125 0.84375 -0.953125 1.484375q-0.625 0.640625 -1.515625 1.0q-0.90625 0.34375 -2.0625 0.34375q-1.125 0 -2.03125 -0.375q-0.90625 -0.375 -1.53125 -0.96875q-0.625 -0.609375 -0.953125 -1.390625q-0.34375 -0.796875 -0.34375 -1.625q0 -1.0 0.34375 -1.734375q0.328125 -0.734375 0.9375 -1.21875q0.59375 -0.5 1.40625 -0.734375q0.8125 -0.25 1.765625 -0.25q0.359375 0 0.703125 0.03125q0.328125 0.03125 0.5 0.078125l0 5.53125q1.015625 -0.171875 1.5 -0.8125q0.46875 -0.65625 0.46875 -1.59375q0 -0.984375 -0.625 -1.984375l1.65625 -0.921875q0.5 0.71875 0.78125 1.59375q0.265625 0.859375 0.265625 1.6875zm-5.859375 2.0625l0 -3.34375q-0.78125 0 -1.265625 0.359375q-0.484375 0.34375 -0.484375 1.1875q0 0.65625 0.4375 1.15625q0.421875 0.484375 1.3125 0.640625zm5.640625 -7.5858154l-9.25 0l0 -2.234375l1.625 -0.1875l0 -0.078125q-0.953125 -0.5 -1.40625 -1.203125q-0.453125 -0.71875 -0.453125 -1.421875q0 -0.390625 0.046875 -0.640625q0.046875 -0.25 0.140625 -0.453125l2.375 0.4375q-0.078125 0.265625 -0.109375 0.5q-0.046875 0.21875 -0.046875 0.515625q0 0.515625 0.375 1.09375q0.375 0.5625 1.328125 0.9375l5.375 0l0 2.734375z" fill-rule="nonzero"/><path fill="#eee8d5" d="m91.88189 206.70473c-2.4352722 0 -4.4094467 -3.0517578E-5 -4.4094467 -7.6293945E-5l0 -68.11017c0 -3.0517578E-5 -1.9741821 -6.1035156E-5 -4.4094467 -6.1035156E-5l0 0c2.4352646 0 4.4094467 -4.5776367E-5 4.4094467 -7.6293945E-5l0 -68.11009l0 0c0 -2.2888184E-5 0.46456146 -3.8146973E-5 1.2914963 -5.340576E-5c0.8269348 -1.5258789E-5 1.948494 -2.2888184E-5 3.1179504 -2.2888184E-5z" fill-rule="evenodd"/><path fill="#000000" fill-opacity="0.0" d="m91.88189 206.70473c-2.4352722 0 -4.4094467 -3.0517578E-5 -4.4094467 -7.6293945E-5l0 -68.11017c0 -3.0517578E-5 -1.9741821 -6.1035156E-5 -4.4094467 -6.1035156E-5l0 0c2.4352646 0 4.4094467 -4.5776367E-5 4.4094467 -7.6293945E-5l0 -68.11009l0 0c0 -2.2888184E-5 0.46456146 -3.8146973E-5 1.2914963 -5.340576E-5c0.8269348 -1.5258789E-5 1.948494 -2.2888184E-5 3.1179504 -2.2888184E-5" fill-rule="evenodd"/><path stroke="#586e75" stroke-width="2.0" stroke-linejoin="round" stroke-linecap="butt" d="m91.88189 206.70473c-2.4352722 0 -4.4094467 -3.0517578E-5 -4.4094467 -7.6293945E-5l0 -68.11017c0 -3.0517578E-5 -1.9741821 -6.1035156E-5 -4.4094467 -6.1035156E-5l0 0c2.4352646 0 4.4094467 -4.5776367E-5 4.4094467 -7.6293945E-5l0 -68.11009l0 0c0 -2.2888184E-5 0.46456146 -3.8146973E-5 1.2914963 -5.340576E-5c0.8269348 -1.5258789E-5 1.948494 -2.2888184E-5 3.1179504 -2.2888184E-5" fill-rule="evenodd"/><path fill="#eee8d5" d="m104.73491 218.1588l0 0c0 -3.7108917 3.0082703 -6.719162 6.719162 -6.719162l381.08136 0c1.7820435 0 3.4910889 0.707901 4.7511597 1.9679871c1.2601013 1.260086 1.9680176 2.9691315 1.9680176 4.751175l0 26.876633c0 3.7108917 -3.0082703 6.719162 -6.7191772 6.719162l-381.08136 0l0 0c-3.7108917 0 -6.719162 -3.0082703 -6.719162 -6.719162z" fill-rule="evenodd"/><path stroke="#22b8eb" stroke-width="4.0" stroke-linejoin="round" stroke-linecap="butt" d="m104.73491 218.1588l0 0c0 -3.7108917 3.0082703 -6.719162 6.719162 -6.719162l381.08136 0c1.7820435 0 3.4910889 0.707901 4.7511597 1.9679871c1.2601013 1.260086 1.9680176 2.9691315 1.9680176 4.751175l0 26.876633c0 3.7108917 -3.0082703 6.719162 -6.7191772 6.719162l-381.08136 0l0 0c-3.7108917 0 -6.719162 -3.0082703 -6.719162 -6.719162z" fill-rule="evenodd"/><path fill="#22b8eb" d="m279.8242 237.4571l0 -10.5l2.625 0q2.4375 0 3.703125 1.34375q1.265625 1.34375 1.265625 3.859375q0 1.25 -0.328125 2.234375q-0.3125 0.984375 -0.9375 1.671875q-0.625 0.671875 -1.546875 1.03125q-0.90625 0.359375 -2.09375 0.359375l-2.6875 0zm1.328125 -1.09375l1.203125 0q1.84375 0 2.75 -1.09375q0.921875 -1.109375 0.921875 -3.109375q0 -2.0 -0.921875 -3.046875q-0.90625 -1.0625 -2.75 -1.0625l-1.203125 0l0 8.3125zm11.418152 1.28125q-0.734375 0 -1.390625 -0.265625q-0.640625 -0.28125 -1.140625 -0.796875q-0.484375 -0.515625 -0.78125 -1.265625q-0.296875 -0.765625 -0.296875 -1.734375q0 -0.96875 0.296875 -1.734375q0.296875 -0.765625 0.78125 -1.28125q0.5 -0.53125 1.140625 -0.796875q0.65625 -0.28125 1.390625 -0.28125q0.71875 0 1.359375 0.28125q0.65625 0.265625 1.140625 0.796875q0.5 0.515625 0.796875 1.28125q0.296875 0.765625 0.296875 1.734375q0 0.96875 -0.296875 1.734375q-0.296875 0.75 -0.796875 1.265625q-0.484375 0.515625 -1.140625 0.796875q-0.640625 0.265625 -1.359375 0.265625zm0 -1.078125q0.484375 0 0.890625 -0.21875q0.421875 -0.21875 0.71875 -0.609375q0.296875 -0.390625 0.453125 -0.9375q0.171875 -0.546875 0.171875 -1.21875q0 -0.671875 -0.171875 -1.21875q-0.15625 -0.546875 -0.453125 -0.953125q-0.296875 -0.40625 -0.71875 -0.609375q-0.40625 -0.21875 -0.890625 -0.21875q-0.5 0 -0.921875 0.21875q-0.40625 0.203125 -0.703125 0.609375q-0.296875 0.40625 -0.46875 0.953125q-0.15625 0.546875 -0.15625 1.21875q0 0.671875 0.15625 1.21875q0.171875 0.546875 0.46875 0.9375q0.296875 0.390625 0.703125 0.609375q0.421875 0.21875 0.921875 0.21875zm8.718903 1.078125q-0.78125 0 -1.453125 -0.265625q-0.671875 -0.28125 -1.15625 -0.796875q-0.484375 -0.515625 -0.765625 -1.265625q-0.28125 -0.765625 -0.28125 -1.734375q0 -0.96875 0.296875 -1.734375q0.3125 -0.765625 0.828125 -1.28125q0.515625 -0.53125 1.1875 -0.796875q0.6875 -0.28125 1.4375 -0.28125q0.765625 0 1.3125 0.28125q0.546875 0.265625 0.953125 0.625l-0.671875 0.875q-0.328125 -0.3125 -0.71875 -0.5q-0.375 -0.1875 -0.828125 -0.1875q-0.53125 0 -0.984375 0.21875q-0.4375 0.203125 -0.765625 0.609375q-0.3125 0.40625 -0.5 0.953125q-0.1875 0.546875 -0.1875 1.21875q0 0.671875 0.171875 1.21875q0.1875 0.546875 0.5 0.9375q0.3125 0.390625 0.75 0.609375q0.453125 0.21875 0.984375 0.21875q0.546875 0 1.0 -0.234375q0.453125 -0.234375 0.8125 -0.5625l0.578125 0.890625q-0.515625 0.453125 -1.15625 0.71875q-0.640625 0.265625 -1.34375 0.265625zm4.2178955 -0.1875l0 -11.390625l1.296875 0l0 7.703125l0.046875 0l3.3125 -4.09375l1.453125 0l-2.609375 3.125l2.96875 4.65625l-1.4375 0l-2.28125 -3.75l-1.453125 1.703125l0 2.046875l-1.296875 0zm11.076263 0.1875q-0.78125 0 -1.46875 -0.28125q-0.6875 -0.28125 -1.1875 -0.796875q-0.5 -0.515625 -0.796875 -1.265625q-0.28125 -0.75 -0.28125 -1.71875q0 -0.953125 0.296875 -1.71875q0.296875 -0.765625 0.78125 -1.28125q0.484375 -0.53125 1.109375 -0.8125q0.625 -0.28125 1.296875 -0.28125q0.734375 0 1.3125 0.265625q0.59375 0.25 0.984375 0.734375q0.390625 0.46875 0.59375 1.140625q0.21875 0.671875 0.21875 1.515625q0 0.203125 -0.015625 0.40625q0 0.1875 -0.03125 0.34375l-5.25 0q0.078125 1.25 0.765625 1.984375q0.703125 0.71875 1.828125 0.71875q0.5625 0 1.03125 -0.171875q0.46875 -0.171875 0.90625 -0.4375l0.46875 0.859375q-0.515625 0.328125 -1.140625 0.5625q-0.625 0.234375 -1.421875 0.234375zm-2.453125 -4.703125l4.15625 0q0 -1.1875 -0.5 -1.796875q-0.5 -0.609375 -1.421875 -0.609375q-0.40625 0 -0.78125 0.15625q-0.375 0.15625 -0.6875 0.46875q-0.296875 0.3125 -0.5 0.765625q-0.203125 0.4375 -0.265625 1.015625zm7.2328796 4.515625l0 -7.78125l1.09375 0l0.109375 1.40625l0.046875 0q0.390625 -0.734375 0.953125 -1.15625q0.578125 -0.4375 1.25 -0.4375q0.46875 0 0.828125 0.15625l-0.25 1.15625q-0.1875 -0.0625 -0.359375 -0.09375q-0.15625 -0.03125 -0.390625 -0.03125q-0.5 0 -1.03125 0.40625q-0.53125 0.390625 -0.9375 1.390625l0 4.984375l-1.3125 0z" fill-rule="nonzero"/><path fill="#eee8d5" d="m183.03674 82.374016l0 0c0 -6.566536 5.323227 -11.889763 11.8897705 -11.889763l51.81102 0c3.153366 0 6.1775665 1.2526703 8.407333 3.4824295c2.2297668 2.2297668 3.4824219 5.253975 3.4824219 8.407333l0 47.55906c0 6.5665283 -5.323227 11.889755 -11.889755 11.889755l-51.81102 0c-6.5665436 0 -11.8897705 -5.323227 -11.8897705 -11.889755z" fill-rule="evenodd"/><path stroke="#586e75" stroke-width="2.0" stroke-linejoin="round" stroke-linecap="butt" d="m183.03674 82.374016l0 0c0 -6.566536 5.323227 -11.889763 11.8897705 -11.889763l51.81102 0c3.153366 0 6.1775665 1.2526703 8.407333 3.4824295c2.2297668 2.2297668 3.4824219 5.253975 3.4824219 8.407333l0 47.55906c0 6.5665283 -5.323227 11.889755 -11.889755 11.889755l-51.81102 0c-6.5665436 0 -11.8897705 -5.323227 -11.8897705 -11.889755z" fill-rule="evenodd"/><path fill="#eee8d5" d="m190.66405 88.41076l0 0c0 -4.638611 3.7603302 -8.398949 8.398941 -8.398949l43.80052 0c2.2275543 0 4.363846 0.8848877 5.938965 2.459999c1.5751038 1.5751038 2.4599915 3.7114105 2.4599915 5.9389496l0 33.595802c0 4.638611 -3.7603302 8.398956 -8.398956 8.398956l-43.80052 0c-4.638611 0 -8.398941 -3.7603455 -8.398941 -8.398956z" fill-rule="evenodd"/><path stroke="#b58900" stroke-width="4.0" stroke-linejoin="round" stroke-linecap="butt" d="m190.66405 88.41076l0 0c0 -4.638611 3.7603302 -8.398949 8.398941 -8.398949l43.80052 0c2.2275543 0 4.363846 0.8848877 5.938965 2.459999c1.5751038 1.5751038 2.4599915 3.7114105 2.4599915 5.9389496l0 33.595802c0 4.638611 -3.7603302 8.398956 -8.398956 8.398956l-43.80052 0c-4.638611 0 -8.398941 -3.7603455 -8.398941 -8.398956z" fill-rule="evenodd"/><path fill="#b58900" d="m210.98122 95.693665l-0.5 1.609375l3.15625 0l-0.5 -1.609375q-0.28125 -0.875 -0.546875 -1.75q-0.25 -0.875 -0.5 -1.78125l-0.078125 0q-0.234375 0.90625 -0.5 1.78125q-0.25 0.875 -0.53125 1.75zm-3.203125 5.875l3.546875 -10.5l1.515625 0l3.546875 10.5l-1.421875 0l-1.0 -3.203125l-3.8125 0l-1.015625 3.203125l-1.359375 0zm9.96965 3.28125l0 -11.0625l1.09375 0l0.109375 0.90625l0.046875 0q0.53125 -0.453125 1.15625 -0.765625q0.640625 -0.328125 1.328125 -0.328125q0.75 0 1.3125 0.28125q0.578125 0.28125 0.96875 0.796875q0.390625 0.515625 0.578125 1.25q0.203125 0.734375 0.203125 1.640625q0 0.984375 -0.28125 1.765625q-0.265625 0.78125 -0.734375 1.328125q-0.453125 0.53125 -1.0625 0.8125q-0.609375 0.28125 -1.28125 0.28125q-0.546875 0 -1.078125 -0.234375q-0.53125 -0.234375 -1.078125 -0.65625l0.03125 1.359375l0 2.625l-1.3125 0zm3.21875 -4.1875q0.484375 0 0.890625 -0.21875q0.40625 -0.21875 0.703125 -0.609375q0.296875 -0.390625 0.453125 -0.96875q0.171875 -0.578125 0.171875 -1.296875q0 -0.640625 -0.109375 -1.171875q-0.109375 -0.53125 -0.359375 -0.90625q-0.25 -0.375 -0.640625 -0.578125q-0.390625 -0.203125 -0.9375 -0.203125q-0.5 0 -1.0 0.28125q-0.5 0.265625 -1.078125 0.765625l0 4.078125q0.53125 0.453125 1.015625 0.640625q0.5 0.1875 0.890625 0.1875zm5.66127 4.1875l0 -11.0625l1.09375 0l0.109375 0.90625l0.046875 0q0.53125 -0.453125 1.15625 -0.765625q0.640625 -0.328125 1.328125 -0.328125q0.75 0 1.3125 0.28125q0.578125 0.28125 0.96875 0.796875q0.390625 0.515625 0.578125 1.25q0.203125 0.734375 0.203125 1.640625q0 0.984375 -0.28125 1.765625q-0.265625 0.78125 -0.734375 1.328125q-0.453125 0.53125 -1.0625 0.8125q-0.609375 0.28125 -1.28125 0.28125q-0.546875 0 -1.078125 -0.234375q-0.53125 -0.234375 -1.078125 -0.65625l0.03125 1.359375l0 2.625l-1.3125 0zm3.21875 -4.1875q0.484375 0 0.890625 -0.21875q0.40625 -0.21875 0.703125 -0.609375q0.296875 -0.390625 0.453125 -0.96875q0.171875 -0.578125 0.171875 -1.296875q0 -0.640625 -0.109375 -1.171875q-0.109375 -0.53125 -0.359375 -0.90625q-0.25 -0.375 -0.640625 -0.578125q-0.390625 -0.203125 -0.9375 -0.203125q-0.5 0 -1.0 0.28125q-0.5 0.265625 -1.078125 0.765625l0 4.078125q0.53125 0.453125 1.015625 0.640625q0.5 0.1875 0.890625 0.1875z" fill-rule="nonzero"/><path fill="#b58900" d="m219.86124 114.693665l-0.5 1.609375l3.15625 0l-0.5 -1.609375q-0.28125 -0.875 -0.546875 -1.75q-0.25 -0.875 -0.5 -1.78125l-0.078125 0q-0.234375 0.90625 -0.5 1.78125q-0.25 0.875 -0.53125 1.75zm-3.203125 5.875l3.546875 -10.5l1.515625 0l3.546875 10.5l-1.421875 0l-1.0 -3.203125l-3.8125 0l-1.015625 3.203125l-1.359375 0z" fill-rule="nonzero"/><path fill="#eee8d5" d="m266.4147 156.59448l0 0c0 -5.534439 4.4865417 -10.020996 10.020996 -10.020996l212.80838 0c2.6577454 0 5.2066345 1.0557861 7.0859375 2.935089c1.879303 1.879303 2.935089 4.428177 2.935089 7.085907l0 40.084c0 5.534439 -4.4865723 10.020996 -10.021027 10.020996l-212.80838 0c-5.5344543 0 -10.020996 -4.486557 -10.020996 -10.020996z" fill-rule="evenodd"/><path stroke="#586e75" stroke-width="2.0" stroke-linejoin="round" stroke-linecap="butt" d="m266.4147 156.59448l0 0c0 -5.534439 4.4865417 -10.020996 10.020996 -10.020996l212.80838 0c2.6577454 0 5.2066345 1.0557861 7.0859375 2.935089c1.879303 1.879303 2.935089 4.428177 2.935089 7.085907l0 40.084c0 5.534439 -4.4865723 10.020996 -10.021027 10.020996l-212.80838 0c-5.5344543 0 -10.020996 -4.486557 -10.020996 -10.020996z" fill-rule="evenodd"/><path fill="#eee8d5" d="m345.03543 159.83858l0 0c0 -4.638611 3.7603455 -8.398941 8.398956 -8.398941l62.257202 0c2.227539 0 4.363861 0.8848877 5.938965 2.4599915c1.5751038 1.5751038 2.4599915 3.7114105 2.4599915 5.9389496l0 33.59581c0 4.638611 -3.7603455 8.398941 -8.398956 8.398941l-62.257202 0c-4.638611 0 -8.398956 -3.7603302 -8.398956 -8.398941z" fill-rule="evenodd"/><path stroke="#cb4b16" stroke-width="4.0" stroke-linejoin="round" stroke-linecap="butt" d="m345.03543 159.83858l0 0c0 -4.638611 3.7603455 -8.398941 8.398956 -8.398941l62.257202 0c2.227539 0 4.363861 0.8848877 5.938965 2.4599915c1.5751038 1.5751038 2.4599915 3.7114105 2.4599915 5.9389496l0 33.59581c0 4.638611 -3.7603455 8.398941 -8.398956 8.398941l-62.257202 0c-4.638611 0 -8.398956 -3.7603302 -8.398956 -8.398941z" fill-rule="evenodd"/><path fill="#cb4b16" d="m368.80048 172.99649l0 -10.5l3.125 0q0.796875 0 1.453125 0.15625q0.671875 0.140625 1.140625 0.453125q0.46875 0.296875 0.734375 0.78125q0.265625 0.484375 0.265625 1.171875q0 0.78125 -0.390625 1.421875q-0.390625 0.625 -1.140625 0.875l0 0.0625q0.953125 0.171875 1.546875 0.796875q0.59375 0.625 0.59375 1.703125q0 0.78125 -0.296875 1.359375q-0.28125 0.5625 -0.8125 0.953125q-0.515625 0.375 -1.265625 0.578125q-0.734375 0.1875 -1.609375 0.1875l-3.34375 0zm1.328125 -6.03125l1.546875 0q1.34375 0 1.9375 -0.453125q0.59375 -0.46875 0.59375 -1.28125q0 -0.90625 -0.625 -1.28125q-0.609375 -0.390625 -1.828125 -0.390625l-1.625 0l0 3.40625zm0 4.96875l1.828125 0q1.359375 0 2.109375 -0.5q0.75 -0.5 0.75 -1.5625q0 -0.96875 -0.734375 -1.421875q-0.734375 -0.46875 -2.125 -0.46875l-1.828125 0l0 3.953125zm7.954895 1.0625l0 -7.78125l1.3125 0l0 7.78125l-1.3125 0zm0.671875 -9.375q-0.390625 0 -0.65625 -0.234375q-0.25 -0.25 -0.25 -0.609375q0 -0.390625 0.25 -0.625q0.265625 -0.234375 0.65625 -0.234375q0.390625 0 0.640625 0.234375q0.265625 0.234375 0.265625 0.625q0 0.359375 -0.265625 0.609375q-0.25 0.234375 -0.640625 0.234375zm3.2641296 9.375l0 -7.78125l1.09375 0l0.109375 1.125l0.046875 0q0.5625 -0.5625 1.171875 -0.9375q0.625 -0.375 1.4375 -0.375q1.234375 0 1.796875 0.765625q0.5625 0.765625 0.5625 2.28125l0 4.921875l-1.3125 0l0 -4.75q0 -1.109375 -0.359375 -1.59375q-0.34375 -0.484375 -1.109375 -0.484375q-0.609375 0 -1.078125 0.3125q-0.453125 0.296875 -1.046875 0.890625l0 5.625l-1.3125 0zm10.783264 0.1875q-0.828125 0 -1.578125 -0.296875q-0.75 -0.3125 -1.3125 -0.765625l0.65625 -0.890625q0.5 0.421875 1.03125 0.6875q0.546875 0.25 1.25 0.25q0.765625 0 1.140625 -0.34375q0.390625 -0.359375 0.390625 -0.875q0 -0.3125 -0.15625 -0.53125q-0.15625 -0.21875 -0.40625 -0.390625q-0.25 -0.171875 -0.578125 -0.296875q-0.3125 -0.125 -0.625 -0.25q-0.421875 -0.140625 -0.84375 -0.328125q-0.40625 -0.1875 -0.734375 -0.453125q-0.328125 -0.265625 -0.546875 -0.609375q-0.203125 -0.359375 -0.203125 -0.859375q0 -0.453125 0.1875 -0.859375q0.1875 -0.421875 0.53125 -0.703125q0.34375 -0.296875 0.828125 -0.46875q0.5 -0.171875 1.125 -0.171875q0.734375 0 1.34375 0.265625q0.625 0.25 1.078125 0.609375l-0.625 0.84375q-0.40625 -0.3125 -0.84375 -0.5q-0.421875 -0.1875 -0.9375 -0.1875q-0.734375 0 -1.078125 0.34375q-0.34375 0.328125 -0.34375 0.765625q0 0.28125 0.140625 0.484375q0.15625 0.1875 0.390625 0.34375q0.234375 0.15625 0.546875 0.28125q0.3125 0.109375 0.65625 0.234375q0.40625 0.171875 0.828125 0.34375q0.4375 0.171875 0.765625 0.4375q0.34375 0.265625 0.546875 0.65625q0.21875 0.375 0.21875 0.921875q0 0.484375 -0.1875 0.90625q-0.171875 0.40625 -0.53125 0.734375q-0.359375 0.3125 -0.90625 0.484375q-0.53125 0.1875 -1.21875 0.1875zm3.51651 2.375l4.28125 -13.921875l0.953125 0l-4.265625 13.921875l-0.96875 0z" fill-rule="nonzero"/><path fill="#cb4b16" d="m372.36847 191.99649l0 -10.5l1.328125 0l0 9.359375l4.59375 0l0 1.140625l-5.921875 0zm7.651001 0l0 -7.78125l1.3125 0l0 7.78125l-1.3125 0zm0.671875 -9.375q-0.390625 0 -0.65625 -0.234375q-0.25 -0.25 -0.25 -0.609375q0 -0.390625 0.25 -0.625q0.265625 -0.234375 0.65625 -0.234375q0.390625 0 0.640625 0.234375q0.265625 0.234375 0.265625 0.625q0 0.359375 -0.265625 0.609375q-0.25 0.234375 -0.640625 0.234375zm6.7016296 9.5625q-0.546875 0 -1.125 -0.265625q-0.578125 -0.265625 -1.09375 -0.71875l-0.046875 0l-0.109375 0.796875l-1.0625 0l0 -11.390625l1.3125 0l0 3.109375l-0.03125 1.40625q0.53125 -0.46875 1.15625 -0.78125q0.625 -0.3125 1.28125 -0.3125q0.75 0 1.3125 0.28125q0.578125 0.28125 0.96875 0.796875q0.40625 0.515625 0.59375 1.25q0.203125 0.734375 0.203125 1.625q0 0.984375 -0.28125 1.78125q-0.265625 0.78125 -0.734375 1.328125q-0.453125 0.53125 -1.0625 0.8125q-0.609375 0.28125 -1.28125 0.28125zm-0.21875 -1.09375q0.484375 0 0.890625 -0.21875q0.40625 -0.21875 0.703125 -0.609375q0.296875 -0.390625 0.453125 -0.96875q0.171875 -0.578125 0.171875 -1.296875q0 -0.640625 -0.109375 -1.171875q-0.109375 -0.53125 -0.359375 -0.90625q-0.25 -0.375 -0.640625 -0.578125q-0.390625 -0.203125 -0.9375 -0.203125q-0.9375 0 -2.078125 1.046875l0 4.078125q0.515625 0.453125 1.015625 0.640625q0.5 0.1875 0.890625 0.1875zm7.6605225 1.09375q-0.828125 0 -1.578125 -0.296875q-0.75 -0.3125 -1.3125 -0.765625l0.65625 -0.890625q0.5 0.421875 1.03125 0.6875q0.546875 0.25 1.25 0.25q0.765625 0 1.140625 -0.34375q0.390625 -0.359375 0.390625 -0.875q0 -0.3125 -0.15625 -0.53125q-0.15625 -0.21875 -0.40625 -0.390625q-0.25 -0.171875 -0.578125 -0.296875q-0.3125 -0.125 -0.625 -0.25q-0.421875 -0.140625 -0.84375 -0.328125q-0.40625 -0.1875 -0.734375 -0.453125q-0.328125 -0.265625 -0.546875 -0.609375q-0.203125 -0.359375 -0.203125 -0.859375q0 -0.453125 0.1875 -0.859375q0.1875 -0.421875 0.53125 -0.703125q0.34375 -0.296875 0.828125 -0.46875q0.5 -0.171875 1.125 -0.171875q0.734375 0 1.34375 0.265625q0.625 0.25 1.078125 0.609375l-0.625 0.84375q-0.40625 -0.3125 -0.84375 -0.5q-0.421875 -0.1875 -0.9375 -0.1875q-0.734375 0 -1.078125 0.34375q-0.34375 0.328125 -0.34375 0.765625q0 0.28125 0.140625 0.484375q0.15625 0.1875 0.390625 0.34375q0.234375 0.15625 0.546875 0.28125q0.3125 0.109375 0.65625 0.234375q0.40625 0.171875 0.828125 0.34375q0.4375 0.171875 0.765625 0.4375q0.34375 0.265625 0.546875 0.65625q0.21875 0.375 0.21875 0.921875q0 0.484375 -0.1875 0.90625q-0.171875 0.40625 -0.53125 0.734375q-0.359375 0.3125 -0.90625 0.484375q-0.53125 0.1875 -1.21875 0.1875z" fill-rule="nonzero"/><path fill="#eee8d5" d="m266.41208 82.379265l0 0c0 -6.566536 5.3232117 -11.889763 11.8897705 -11.889763l51.811005 0c3.1533813 0 6.177582 1.2526703 8.407349 3.4824295c2.2297668 2.2297668 3.4824219 5.253975 3.4824219 8.407333l0 47.55906c0 6.5665283 -5.323242 11.889755 -11.8897705 11.889755l-51.811005 0c-6.566559 0 -11.8897705 -5.323227 -11.8897705 -11.889755z" fill-rule="evenodd"/><path stroke="#586e75" stroke-width="2.0" stroke-linejoin="round" stroke-linecap="butt" d="m266.41208 82.379265l0 0c0 -6.566536 5.3232117 -11.889763 11.8897705 -11.889763l51.811005 0c3.1533813 0 6.177582 1.2526703 8.407349 3.4824295c2.2297668 2.2297668 3.4824219 5.253975 3.4824219 8.407333l0 47.55906c0 6.5665283 -5.323242 11.889755 -11.8897705 11.889755l-51.811005 0c-6.566559 0 -11.8897705 -5.323227 -11.8897705 -11.889755z" fill-rule="evenodd"/><path fill="#eee8d5" d="m274.03937 88.41601l0 0c0 -4.638611 3.7603455 -8.398949 8.398956 -8.398949l43.800507 0c2.2275696 0 4.363861 0.8848877 5.938965 2.459999c1.5751038 1.5751038 2.4599915 3.7114105 2.4599915 5.9389496l0 33.595802c0 4.638611 -3.760315 8.398956 -8.398956 8.398956l-43.800507 0c-4.638611 0 -8.398956 -3.7603455 -8.398956 -8.398956z" fill-rule="evenodd"/><path stroke="#859900" stroke-width="4.0" stroke-linejoin="round" stroke-linecap="butt" d="m274.03937 88.41601l0 0c0 -4.638611 3.7603455 -8.398949 8.398956 -8.398949l43.800507 0c2.2275696 0 4.363861 0.8848877 5.938965 2.459999c1.5751038 1.5751038 2.4599915 3.7114105 2.4599915 5.9389496l0 33.595802c0 4.638611 -3.760315 8.398956 -8.398956 8.398956l-43.800507 0c-4.638611 0 -8.398956 -3.7603455 -8.398956 -8.398956z" fill-rule="evenodd"/><path fill="#859900" d="m294.35654 95.69891l-0.5 1.609375l3.15625 0l-0.5 -1.609375q-0.28125 -0.875 -0.546875 -1.75q-0.25 -0.875 -0.5 -1.78125l-0.078125 0q-0.234375 0.90625 -0.5 1.78125q-0.25 0.875 -0.53125 1.75zm-3.203125 5.875l3.546875 -10.5l1.515625 0l3.546875 10.5l-1.421875 0l-1.0 -3.203125l-3.8125 0l-1.015625 3.203125l-1.359375 0zm9.969666 3.28125l0 -11.0625l1.09375 0l0.109375 0.90625l0.046875 0q0.53125 -0.453125 1.15625 -0.765625q0.640625 -0.328125 1.328125 -0.328125q0.75 0 1.3125 0.28125q0.578125 0.28125 0.96875 0.796875q0.390625 0.515625 0.578125 1.25q0.203125 0.734375 0.203125 1.640625q0 0.984375 -0.28125 1.765625q-0.265625 0.78125 -0.734375 1.328125q-0.453125 0.53125 -1.0625 0.8125q-0.609375 0.28125 -1.28125 0.28125q-0.546875 0 -1.078125 -0.234375q-0.53125 -0.234375 -1.078125 -0.65625l0.03125 1.359375l0 2.625l-1.3125 0zm3.21875 -4.1875q0.484375 0 0.890625 -0.21875q0.40625 -0.21875 0.703125 -0.609375q0.296875 -0.390625 0.453125 -0.96875q0.171875 -0.578125 0.171875 -1.296875q0 -0.640625 -0.109375 -1.171875q-0.109375 -0.53125 -0.359375 -0.90625q-0.25 -0.375 -0.640625 -0.578125q-0.390625 -0.203125 -0.9375 -0.203125q-0.5 0 -1.0 0.28125q-0.5 0.265625 -1.078125 0.765625l0 4.078125q0.53125 0.453125 1.015625 0.640625q0.5 0.1875 0.890625 0.1875zm5.661255 4.1875l0 -11.0625l1.09375 0l0.109375 0.90625l0.046875 0q0.53125 -0.453125 1.15625 -0.765625q0.640625 -0.328125 1.328125 -0.328125q0.75 0 1.3125 0.28125q0.578125 0.28125 0.96875 0.796875q0.390625 0.515625 0.578125 1.25q0.203125 0.734375 0.203125 1.640625q0 0.984375 -0.28125 1.765625q-0.265625 0.78125 -0.734375 1.328125q-0.453125 0.53125 -1.0625 0.8125q-0.609375 0.28125 -1.28125 0.28125q-0.546875 0 -1.078125 -0.234375q-0.53125 -0.234375 -1.078125 -0.65625l0.03125 1.359375l0 2.625l-1.3125 0zm3.21875 -4.1875q0.484375 0 0.890625 -0.21875q0.40625 -0.21875 0.703125 -0.609375q0.296875 -0.390625 0.453125 -0.96875q0.171875 -0.578125 0.171875 -1.296875q0 -0.640625 -0.109375 -1.171875q-0.109375 -0.53125 -0.359375 -0.90625q-0.25 -0.375 -0.640625 -0.578125q-0.390625 -0.203125 -0.9375 -0.203125q-0.5 0 -1.0 0.28125q-0.5 0.265625 -1.078125 0.765625l0 4.078125q0.53125 0.453125 1.015625 0.640625q0.5 0.1875 0.890625 0.1875z" fill-rule="nonzero"/><path fill="#859900" d="m301.07208 120.57391l0 -10.5l3.125 0q0.796875 0 1.453125 0.15625q0.671875 0.140625 1.140625 0.453125q0.46875 0.296875 0.734375 0.78125q0.265625 0.484375 0.265625 1.171875q0 0.78125 -0.390625 1.421875q-0.390625 0.625 -1.140625 0.875l0 0.0625q0.953125 0.171875 1.546875 0.796875q0.59375 0.625 0.59375 1.703125q0 0.78125 -0.296875 1.359375q-0.28125 0.5625 -0.8125 0.953125q-0.515625 0.375 -1.265625 0.578125q-0.734375 0.1875 -1.609375 0.1875l-3.34375 0zm1.328125 -6.03125l1.546875 0q1.34375 0 1.9375 -0.453125q0.59375 -0.46875 0.59375 -1.28125q0 -0.90625 -0.625 -1.28125q-0.609375 -0.390625 -1.828125 -0.390625l-1.625 0l0 3.40625zm0 4.96875l1.828125 0q1.359375 0 2.109375 -0.5q0.75 -0.5 0.75 -1.5625q0 -0.96875 -0.734375 -1.421875q-0.734375 -0.46875 -2.125 -0.46875l-1.828125 0l0 3.953125z" fill-rule="nonzero"/><path fill="#eee8d5" d="m345.03674 82.384514l0 0c0 -6.566536 5.323242 -11.889763 11.8897705 -11.889763l51.811005 0c3.1533813 0 6.177582 1.2526703 8.407349 3.4824295c2.2297668 2.2297668 3.4824219 5.253975 3.4824219 8.407333l0 47.55906c0 6.5665283 -5.3232117 11.889755 -11.8897705 11.889755l-51.811005 0c-6.5665283 0 -11.8897705 -5.323227 -11.8897705 -11.889755z" fill-rule="evenodd"/><path stroke="#586e75" stroke-width="2.0" stroke-linejoin="round" stroke-linecap="butt" d="m345.03674 82.384514l0 0c0 -6.566536 5.323242 -11.889763 11.8897705 -11.889763l51.811005 0c3.1533813 0 6.177582 1.2526703 8.407349 3.4824295c2.2297668 2.2297668 3.4824219 5.253975 3.4824219 8.407333l0 47.55906c0 6.5665283 -5.3232117 11.889755 -11.8897705 11.889755l-51.811005 0c-6.5665283 0 -11.8897705 -5.323227 -11.8897705 -11.889755z" fill-rule="evenodd"/><path fill="#eee8d5" d="m352.66403 88.42126l0 0c0 -4.638611 3.7603455 -8.398949 8.398956 -8.398949l43.800537 0c2.227539 0 4.3638306 0.8848877 5.9389343 2.459999c1.5751343 1.5751038 2.460022 3.7114105 2.460022 5.9389496l0 33.595802c0 4.638611 -3.7603455 8.398956 -8.398956 8.398956l-43.800537 0c-4.638611 0 -8.398956 -3.7603455 -8.398956 -8.398956z" fill-rule="evenodd"/><path stroke="#859900" stroke-width="4.0" stroke-linejoin="round" stroke-linecap="butt" d="m352.66403 88.42126l0 0c0 -4.638611 3.7603455 -8.398949 8.398956 -8.398949l43.800537 0c2.227539 0 4.3638306 0.8848877 5.9389343 2.459999c1.5751343 1.5751038 2.460022 3.7114105 2.460022 5.9389496l0 33.595802c0 4.638611 -3.7603455 8.398956 -8.398956 8.398956l-43.800537 0c-4.638611 0 -8.398956 -3.7603455 -8.398956 -8.398956z" fill-rule="evenodd"/><path fill="#859900" d="m372.98123 95.70416l-0.5 1.609375l3.15625 0l-0.5 -1.609375q-0.28125 -0.875 -0.546875 -1.75q-0.25 -0.875 -0.5 -1.78125l-0.078125 0q-0.234375 0.90625 -0.5 1.78125q-0.25 0.875 -0.53125 1.75zm-3.203125 5.875l3.546875 -10.5l1.515625 0l3.546875 10.5l-1.421875 0l-1.0 -3.203125l-3.8125 0l-1.015625 3.203125l-1.359375 0zm9.969635 3.28125l0 -11.0625l1.09375 0l0.109375 0.90625l0.046875 0q0.53125 -0.453125 1.15625 -0.765625q0.640625 -0.328125 1.328125 -0.328125q0.75 0 1.3125 0.28125q0.578125 0.28125 0.96875 0.796875q0.390625 0.515625 0.578125 1.25q0.203125 0.734375 0.203125 1.640625q0 0.984375 -0.28125 1.765625q-0.265625 0.78125 -0.734375 1.328125q-0.453125 0.53125 -1.0625 0.8125q-0.609375 0.28125 -1.28125 0.28125q-0.546875 0 -1.078125 -0.234375q-0.53125 -0.234375 -1.078125 -0.65625l0.03125 1.359375l0 2.625l-1.3125 0zm3.21875 -4.1875q0.484375 0 0.890625 -0.21875q0.40625 -0.21875 0.703125 -0.609375q0.296875 -0.390625 0.453125 -0.96875q0.171875 -0.578125 0.171875 -1.296875q0 -0.640625 -0.109375 -1.171875q-0.109375 -0.53125 -0.359375 -0.90625q-0.25 -0.375 -0.640625 -0.578125q-0.390625 -0.203125 -0.9375 -0.203125q-0.5 0 -1.0 0.28125q-0.5 0.265625 -1.078125 0.765625l0 4.078125q0.53125 0.453125 1.015625 0.640625q0.5 0.1875 0.890625 0.1875zm5.6612854 4.1875l0 -11.0625l1.09375 0l0.109375 0.90625l0.046875 0q0.53125 -0.453125 1.15625 -0.765625q0.640625 -0.328125 1.328125 -0.328125q0.75 0 1.3125 0.28125q0.578125 0.28125 0.96875 0.796875q0.390625 0.515625 0.578125 1.25q0.203125 0.734375 0.203125 1.640625q0 0.984375 -0.28125 1.765625q-0.265625 0.78125 -0.734375 1.328125q-0.453125 0.53125 -1.0625 0.8125q-0.609375 0.28125 -1.28125 0.28125q-0.546875 0 -1.078125 -0.234375q-0.53125 -0.234375 -1.078125 -0.65625l0.03125 1.359375l0 2.625l-1.3125 0zm3.21875 -4.1875q0.484375 0 0.890625 -0.21875q0.40625 -0.21875 0.703125 -0.609375q0.296875 -0.390625 0.453125 -0.96875q0.171875 -0.578125 0.171875 -1.296875q0 -0.640625 -0.109375 -1.171875q-0.109375 -0.53125 -0.359375 -0.90625q-0.25 -0.375 -0.640625 -0.578125q-0.390625 -0.203125 -0.9375 -0.203125q-0.5 0 -1.0 0.28125q-0.5 0.265625 -1.078125 0.765625l0 4.078125q0.53125 0.453125 1.015625 0.640625q0.5 0.1875 0.890625 0.1875z" fill-rule="nonzero"/><path fill="#859900" d="m379.69675 120.57916l0 -10.5l3.125 0q0.796875 0 1.453125 0.15625q0.671875 0.140625 1.140625 0.453125q0.46875 0.296875 0.734375 0.78125q0.265625 0.484375 0.265625 1.171875q0 0.78125 -0.390625 1.421875q-0.390625 0.625 -1.140625 0.875l0 0.0625q0.953125 0.171875 1.546875 0.796875q0.59375 0.625 0.59375 1.703125q0 0.78125 -0.296875 1.359375q-0.28125 0.5625 -0.8125 0.953125q-0.515625 0.375 -1.265625 0.578125q-0.734375 0.1875 -1.609375 0.1875l-3.34375 0zm1.328125 -6.03125l1.546875 0q1.34375 0 1.9375 -0.453125q0.59375 -0.46875 0.59375 -1.28125q0 -0.90625 -0.625 -1.28125q-0.609375 -0.390625 -1.828125 -0.390625l-1.625 0l0 3.40625zm0 4.96875l1.828125 0q1.359375 0 2.109375 -0.5q0.75 -0.5 0.75 -1.5625q0 -0.96875 -0.734375 -1.421875q-0.734375 -0.46875 -2.125 -0.46875l-1.828125 0l0 3.953125z" fill-rule="nonzero"/><path fill="#eee8d5" d="m423.6614 82.384514l0 0c0 -6.566536 5.323242 -11.889763 11.8897705 -11.889763l51.811035 0c3.1533508 0 6.1775513 1.2526703 8.407318 3.4824295c2.2297668 2.2297668 3.4824524 5.253975 3.4824524 8.407333l0 47.55906c0 6.5665283 -5.323242 11.889755 -11.8897705 11.889755l-51.811035 0c-6.5665283 0 -11.8897705 -5.323227 -11.8897705 -11.889755z" fill-rule="evenodd"/><path stroke="#586e75" stroke-width="2.0" stroke-linejoin="round" stroke-linecap="butt" d="m423.6614 82.384514l0 0c0 -6.566536 5.323242 -11.889763 11.8897705 -11.889763l51.811035 0c3.1533508 0 6.1775513 1.2526703 8.407318 3.4824295c2.2297668 2.2297668 3.4824524 5.253975 3.4824524 8.407333l0 47.55906c0 6.5665283 -5.323242 11.889755 -11.8897705 11.889755l-51.811035 0c-6.5665283 0 -11.8897705 -5.323227 -11.8897705 -11.889755z" fill-rule="evenodd"/><path fill="#eee8d5" d="m431.28873 88.42126l0 0c0 -4.638611 3.760315 -8.398949 8.398926 -8.398949l43.800537 0c2.227539 0 4.3638306 0.8848877 5.938965 2.459999c1.5751038 1.5751038 2.4599915 3.7114105 2.4599915 5.9389496l0 33.595802c0 4.638611 -3.7603455 8.398956 -8.398956 8.398956l-43.800537 0c-4.638611 0 -8.398926 -3.7603455 -8.398926 -8.398956z" fill-rule="evenodd"/><path stroke="#859900" stroke-width="4.0" stroke-linejoin="round" stroke-linecap="butt" d="m431.28873 88.42126l0 0c0 -4.638611 3.760315 -8.398949 8.398926 -8.398949l43.800537 0c2.227539 0 4.3638306 0.8848877 5.938965 2.459999c1.5751038 1.5751038 2.4599915 3.7114105 2.4599915 5.9389496l0 33.595802c0 4.638611 -3.7603455 8.398956 -8.398956 8.398956l-43.800537 0c-4.638611 0 -8.398926 -3.7603455 -8.398926 -8.398956z" fill-rule="evenodd"/><path fill="#859900" d="m451.6059 95.70416l-0.5 1.609375l3.15625 0l-0.5 -1.609375q-0.28125 -0.875 -0.546875 -1.75q-0.25 -0.875 -0.5 -1.78125l-0.078125 0q-0.234375 0.90625 -0.5 1.78125q-0.25 0.875 -0.53125 1.75zm-3.203125 5.875l3.546875 -10.5l1.515625 0l3.546875 10.5l-1.421875 0l-1.0 -3.203125l-3.8125 0l-1.015625 3.203125l-1.359375 0zm9.969635 3.28125l0 -11.0625l1.09375 0l0.109375 0.90625l0.046875 0q0.53125 -0.453125 1.15625 -0.765625q0.640625 -0.328125 1.328125 -0.328125q0.75 0 1.3125 0.28125q0.578125 0.28125 0.96875 0.796875q0.390625 0.515625 0.578125 1.25q0.203125 0.734375 0.203125 1.640625q0 0.984375 -0.28125 1.765625q-0.265625 0.78125 -0.734375 1.328125q-0.453125 0.53125 -1.0625 0.8125q-0.609375 0.28125 -1.28125 0.28125q-0.546875 0 -1.078125 -0.234375q-0.53125 -0.234375 -1.078125 -0.65625l0.03125 1.359375l0 2.625l-1.3125 0zm3.21875 -4.1875q0.484375 0 0.890625 -0.21875q0.40625 -0.21875 0.703125 -0.609375q0.296875 -0.390625 0.453125 -0.96875q0.171875 -0.578125 0.171875 -1.296875q0 -0.640625 -0.109375 -1.171875q-0.109375 -0.53125 -0.359375 -0.90625q-0.25 -0.375 -0.640625 -0.578125q-0.390625 -0.203125 -0.9375 -0.203125q-0.5 0 -1.0 0.28125q-0.5 0.265625 -1.078125 0.765625l0 4.078125q0.53125 0.453125 1.015625 0.640625q0.5 0.1875 0.890625 0.1875zm5.6612854 4.1875l0 -11.0625l1.09375 0l0.109375 0.90625l0.046875 0q0.53125 -0.453125 1.15625 -0.765625q0.640625 -0.328125 1.328125 -0.328125q0.75 0 1.3125 0.28125q0.578125 0.28125 0.96875 0.796875q0.390625 0.515625 0.578125 1.25q0.203125 0.734375 0.203125 1.640625q0 0.984375 -0.28125 1.765625q-0.265625 0.78125 -0.734375 1.328125q-0.453125 0.53125 -1.0625 0.8125q-0.609375 0.28125 -1.28125 0.28125q-0.546875 0 -1.078125 -0.234375q-0.53125 -0.234375 -1.078125 -0.65625l0.03125 1.359375l0 2.625l-1.3125 0zm3.21875 -4.1875q0.484375 0 0.890625 -0.21875q0.40625 -0.21875 0.703125 -0.609375q0.296875 -0.390625 0.453125 -0.96875q0.171875 -0.578125 0.171875 -1.296875q0 -0.640625 -0.109375 -1.171875q-0.109375 -0.53125 -0.359375 -0.90625q-0.25 -0.375 -0.640625 -0.578125q-0.390625 -0.203125 -0.9375 -0.203125q-0.5 0 -1.0 0.28125q-0.5 0.265625 -1.078125 0.765625l0 4.078125q0.53125 0.453125 1.015625 0.640625q0.5 0.1875 0.890625 0.1875z" fill-rule="nonzero"/><path fill="#859900" d="m458.3214 120.57916l0 -10.5l3.125 0q0.796875 0 1.453125 0.15625q0.671875 0.140625 1.140625 0.453125q0.46875 0.296875 0.734375 0.78125q0.265625 0.484375 0.265625 1.171875q0 0.78125 -0.390625 1.421875q-0.390625 0.625 -1.140625 0.875l0 0.0625q0.953125 0.171875 1.546875 0.796875q0.59375 0.625 0.59375 1.703125q0 0.78125 -0.296875 1.359375q-0.28125 0.5625 -0.8125 0.953125q-0.515625 0.375 -1.265625 0.578125q-0.734375 0.1875 -1.609375 0.1875l-3.34375 0zm1.328125 -6.03125l1.546875 0q1.34375 0 1.9375 -0.453125q0.59375 -0.46875 0.59375 -1.28125q0 -0.90625 -0.625 -1.28125q-0.609375 -0.390625 -1.828125 -0.390625l-1.625 0l0 3.40625zm0 4.96875l1.828125 0q1.359375 0 2.109375 -0.5q0.75 -0.5 0.75 -1.5625q0 -0.96875 -0.734375 -1.421875q-0.734375 -0.46875 -2.125 -0.46875l-1.828125 0l0 3.953125z" fill-rule="nonzero"/></g></svg>